<svg width="376" height="144" fill="none" xmlns="http://www.w3.org/2000/svg"><path fill-rule="evenodd" clip-rule="evenodd" d="M48.325 0h45.039l47.785 144h-46.17l-9.367-27.826H56.088L46.907 144H.733L48.325 0zm6.316 114.174H87.05L96.416 142h41.962L91.92 2H49.77L3.5 142h41.962l9.18-27.826zM147.574 0h67.004c10.069 0 18.674 2.475 25.692 7.54 7.07 4.866 12.298 11.48 15.682 19.78 3.487 8.25 5.211 17.502 5.211 27.724 0 10.254-1.923 19.536-5.81 27.807-3.89 8.276-9.428 14.867-16.614 19.72l-.013.008-.012.008c-7.225 4.726-15.543 7.065-24.886 7.065H191.85V144h-44.276V0zm42.276 107.652h23.978c8.992 0 16.923-2.246 23.791-6.739 6.869-4.638 12.177-10.942 15.924-18.913 3.746-7.971 5.619-16.957 5.619-26.956 0-10-1.685-18.986-5.057-26.957-3.248-7.971-8.243-14.275-14.987-18.913C232.499 4.39 224.319 2 214.578 2h-65.004v140h40.276v-34.348zM261.912 0h67.003c10.07 0 18.675 2.475 25.693 7.539 7.069 4.867 12.298 11.481 15.681 19.782 3.488 8.25 5.211 17.501 5.211 27.723 0 10.254-1.922 19.536-5.81 27.807-3.89 8.276-9.427 14.867-16.614 19.72l-.012.008-.012.008c-7.225 4.726-15.544 7.065-24.886 7.065h-21.978V144h-44.276V0zm42.276 107.652h23.978c8.992 0 16.922-2.246 23.791-6.739 6.869-4.638 12.177-10.942 15.923-18.913 3.747-7.971 5.62-16.957 5.62-26.956 0-10-1.686-18.986-5.058-26.957-3.247-7.971-8.242-14.275-14.986-18.913C346.837 4.39 338.657 2 328.915 2h-65.003v140h40.276v-34.348zm-233.436-60l-11.24 33.913h22.667L70.752 47.652zm.015 6.31l-8.485 25.603h17.112l-8.627-25.603zm133.695 15.386c3.883 0 6.641-1.26 8.568-3.615 1.991-2.432 3.107-5.916 3.107-10.69 0-5.136-1.022-8.785-2.798-11.209-1.663-2.27-4.239-3.53-8.128-3.53H191.85v29.044h12.612zm0 2c4.371 0 7.743-1.45 10.116-4.348 2.373-2.898 3.559-6.884 3.559-11.956 0-5.363-1.061-9.493-3.185-12.392-2.123-2.898-5.37-4.348-9.741-4.348H189.85v33.044h14.612zm114.337-2c3.884 0 6.641-1.26 8.569-3.615 1.991-2.432 3.107-5.916 3.107-10.69 0-5.136-1.023-8.785-2.798-11.209-1.664-2.27-4.239-3.53-8.128-3.53h-13.361v29.044h12.611zm0 2c4.372 0 7.743-1.45 10.116-4.348 2.373-2.898 3.56-6.884 3.56-11.956 0-5.363-1.062-9.493-3.185-12.392-2.123-2.898-5.37-4.348-9.741-4.348h-15.361v33.044h14.611z" fill="#2B81BA"/></svg>