<svg width="71" height="70" fill="none" xmlns="http://www.w3.org/2000/svg"><g clip-path="url(#clip0)"><path fill-rule="evenodd" clip-rule="evenodd" d="M41.651 49.444a.727.727 0 01-.541-.241.774.774 0 01.036-1.074l8.255-7.911a4.908 4.908 0 016.276-.639c.34.233.433.704.206 1.053a.728.728 0 01-1.026.212 3.452 3.452 0 00-4.438.474l-8.264 7.92a.719.719 0 01-.504.206z" fill="#fff"/><path fill-rule="evenodd" clip-rule="evenodd" d="M16.812 69.864a.726.726 0 01-.523-.222L4.423 57.472a.772.772 0 010-1.075l6.589-6.756c2.53-2.593 5.892-4.022 9.469-4.022.486 0 .98.026 1.462.082l21.355 2.405c1.982.18 3.618 1.64 4.1 3.575l12.37-11.855a4.898 4.898 0 017.047.01 5.143 5.143 0 011.462 3.617 5.152 5.152 0 01-1.462 3.618L49.6 64.723c-1.668 1.713-3.887 2.654-6.245 2.654h-.001c-.11 0-.222-.002-.332-.005l-19.762-.542-6.132 2.96a.699.699 0 01-.317.074zM5.992 56.936l10.976 11.256 5.82-2.81a.725.725 0 01.335-.074l19.946.547a7.215 7.215 0 005.483-2.203l17.214-17.655a3.614 3.614 0 001.027-2.543c0-.962-.364-1.864-1.027-2.544a3.44 3.44 0 00-2.481-1.053 3.44 3.44 0 00-2.48 1.053l-.02.019L47.28 53.87a.723.723 0 01-.8.143.764.764 0 01-.446-.698l.001-.858c-.183-1.516-1.386-2.707-2.874-2.839l-.018-.001L21.78 47.21c-.43-.048-.868-.073-1.301-.073-3.181 0-6.173 1.271-8.423 3.578l-6.064 6.22z" fill="#fff"/><path fill-rule="evenodd" clip-rule="evenodd" d="M45.336 50.49a.733.733 0 01-.541-.24.777.777 0 01.035-1.076l10.14-9.716a4.89 4.89 0 016.642-.363c.318.264.369.741.113 1.068a.728.728 0 01-1.042.116 3.434 3.434 0 00-4.694.282l-10.148 9.725a.724.724 0 01-.505.204z" fill="#fff"/><path d="M36.504 35.933h-4.341a.594.594 0 01-.586-.494l-.673-3.96a14.342 14.342 0 01-3.798-1.555l-3.35 2.348a.594.594 0 01-.757-.064l-3.087-3.046a.593.593 0 01-.063-.772l2.37-3.262a13.976 13.976 0 01-1.57-3.736l-4.019-.666a.593.593 0 01-.497-.586v-4.284c0-.29.21-.539.497-.586l4.019-.665c.338-1.316.865-2.57 1.57-3.739l-2.372-3.294a.594.594 0 01.064-.77L23 3.756a.594.594 0 01.759-.062l3.316 2.346a14.354 14.354 0 013.797-1.555l.674-3.99A.594.594 0 0132.13 0h4.342c.29 0 .537.209.585.495l.674 3.99c1.337.335 2.611.857 3.799 1.556l3.348-2.348a.594.594 0 01.758.064l3.087 3.046c.21.206.235.534.063.772l-2.37 3.262a13.991 13.991 0 011.57 3.736l4.05.666a.594.594 0 01.497.587v4.284c0 .29-.21.538-.497.586l-4.05.666a13.955 13.955 0 01-1.571 3.738l2.372 3.294a.594.594 0 01-.064.77l-3.087 3.046a.593.593 0 01-.76.062l-3.316-2.346a14.35 14.35 0 01-3.797 1.555l-.673 3.959a.594.594 0 01-.586.493zm-3.84-1.187h3.338l.656-3.853a.594.594 0 01.458-.48c1.476-.327 2.874-.9 4.154-1.7a.593.593 0 01.657.018l3.229 2.283 2.372-2.34-2.309-3.205a.593.593 0 01-.017-.668c.811-1.263 1.39-2.64 1.721-4.094a.594.594 0 01.483-.454l3.94-.65v-3.275l-3.94-.648a.594.594 0 01-.483-.454 12.826 12.826 0 00-1.721-4.095.592.592 0 01.019-.67l2.304-3.172-2.371-2.34-3.26 2.287a.594.594 0 01-.656.017 13.188 13.188 0 00-4.154-1.7.597.597 0 01-.458-.481l-.656-3.884h-3.338l-.655 3.884a.595.595 0 01-.458.48c-1.476.328-2.874.9-4.154 1.701a.594.594 0 01-.658-.018L23.48 4.95l-2.372 2.34 2.308 3.205c.143.198.15.463.018.668a12.82 12.82 0 00-1.721 4.095.593.593 0 01-.482.454l-3.91.648v3.276l3.91.648c.238.04.428.219.482.455.33 1.454.91 2.832 1.72 4.094a.592.592 0 01-.018.67l-2.305 3.172 2.371 2.34 3.261-2.286a.592.592 0 01.656-.018 13.185 13.185 0 004.154 1.7.596.596 0 01.458.48l.655 3.854z" fill="#fff"/><path d="M34.334 28c-5.662 0-10.267-4.501-10.267-10.034 0-5.532 4.605-10.033 10.267-10.033 5.66 0 10.266 4.501 10.266 10.033C44.6 23.5 39.994 28 34.334 28zm0-18.539c-4.81 0-8.723 3.816-8.723 8.505 0 4.69 3.912 8.505 8.723 8.505 4.81 0 8.722-3.815 8.722-8.505 0-4.69-3.913-8.505-8.722-8.505z" fill="#fff"/><path d="M34.5 11.861l1.57 3.462.176.386.42.058 3.695.512-2.73 2.724-.283.283.07.395.675 3.839-3.212-1.833-.381-.218-.381.218-3.212 1.833.676-3.84.07-.394-.285-.283-2.729-2.724 3.695-.512.42-.058.175-.386L34.5 11.86z" stroke="#fff" stroke-width="1.538"/><path fill-rule="evenodd" clip-rule="evenodd" d="M42.891 57.625c-.067 0-.135-.002-.203-.005l-15.027-.676a.753.753 0 01-.707-.792.753.753 0 01.772-.727l15.027.678a3.122 3.122 0 002.452-1.028 3.295 3.295 0 00.835-2.577.755.755 0 01.653-.838.742.742 0 01.818.67 4.836 4.836 0 01-1.225 3.782 4.585 4.585 0 01-3.395 1.513zM23.104 66.826a.724.724 0 01-.523-.223L9.049 52.727a.773.773 0 010-1.073.727.727 0 011.048 0l13.531 13.875a.773.773 0 010 1.074.728.728 0 01-.524.223z" fill="#fff"/></g><defs><clipPath id="clip0"><path fill="#fff" transform="translate(.5)" d="M0 0h70v69.864H0z"/></clipPath></defs></svg>