<svg width="71" height="70" fill="none" xmlns="http://www.w3.org/2000/svg"><g clip-path="url(#clip0)" fill="#fff"><path fill-rule="evenodd" clip-rule="evenodd" d="M18.108 62.1c-5.236 0-9.494-4.258-9.494-9.494 0-5.234 4.258-9.493 9.494-9.493 5.235 0 9.493 4.259 9.493 9.493 0 5.236-4.258 9.495-9.493 9.495zm0-18.112c-4.753 0-8.618 3.867-8.618 8.618 0 4.753 3.865 8.618 8.618 8.618 4.751 0 8.618-3.865 8.618-8.618 0-4.751-3.867-8.618-8.618-8.618z"/><path fill-rule="evenodd" clip-rule="evenodd" d="M21.128 45.719a.438.438 0 01-.405-.606l.432-1.046a.437.437 0 11.81.334l-.431 1.046a.439.439 0 01-.406.272zM14.655 61.417a.44.44 0 01-.405-.606l.432-1.046a.438.438 0 11.81.334l-.432 1.047a.44.44 0 01-.405.271zM25.424 50a.438.438 0 01-.17-.843l1.046-.434a.439.439 0 01.337.809l-1.045.435a.438.438 0 01-.168.034zM9.746 56.524a.439.439 0 01-.169-.844l1.046-.435a.438.438 0 11.337.81l-1.045.434a.443.443 0 01-.169.035zM26.48 56.497a.433.433 0 01-.167-.033l-1.047-.432a.439.439 0 01.335-.81l1.046.432a.438.438 0 01-.167.843zM10.782 50.023a.442.442 0 01-.167-.032l-1.046-.432a.438.438 0 11.334-.81l1.047.431a.439.439 0 01-.168.843zM21.586 61.405a.437.437 0 01-.404-.269l-.435-1.046a.438.438 0 11.809-.337l.435 1.046a.44.44 0 01-.405.606zM15.064 45.729a.438.438 0 01-.405-.27l-.435-1.046a.439.439 0 01.81-.337l.434 1.045a.438.438 0 01-.404.608zM23.31 47.841a.437.437 0 01-.31-.748l1.202-1.2a.438.438 0 11.62.62l-1.202 1.2a.434.434 0 01-.31.128zM11.704 59.448a.438.438 0 01-.31-.748l1.201-1.2a.437.437 0 11.62.62l-1.2 1.2a.436.436 0 01-.31.128zM27.163 53.045h-1.698a.439.439 0 010-.877h1.698a.438.438 0 010 .877zM10.75 53.045H9.051a.439.439 0 010-.877h1.697a.439.439 0 110 .877zM18.108 45.687a.438.438 0 01-.438-.438V43.55a.438.438 0 11.876 0v1.699a.438.438 0 01-.438.438zM18.108 62.1a.438.438 0 01-.438-.438v-1.698a.438.438 0 11.876 0v1.698a.438.438 0 01-.438.439zM12.905 47.841a.434.434 0 01-.309-.128l-1.201-1.2a.437.437 0 11.62-.62l1.2 1.2a.437.437 0 01-.31.748zM24.51 59.448a.435.435 0 01-.309-.128l-1.2-1.2a.438.438 0 11.62-.62l1.2 1.2a.438.438 0 01-.31.748zM18.108 53.045a.438.438 0 01-.336-.157l-2.83-3.396a.438.438 0 01.673-.562l2.647 3.177 3.688-1.054a.438.438 0 11.24.844l-3.961 1.132a.462.462 0 01-.121.016z"/><path fill-rule="evenodd" clip-rule="evenodd" d="M20.734 70.214h-5.252a.44.44 0 01-.437-.393l-.491-4.712a12.774 12.774 0 01-2.779-1.151l-3.674 2.991a.438.438 0 01-.587-.03L3.803 63.2a.438.438 0 01-.03-.586l2.984-3.674a12.68 12.68 0 01-1.152-2.779L.892 55.67a.438.438 0 01-.392-.435v-5.252c0-.225.17-.413.392-.436l4.713-.492c.27-.962.657-1.895 1.152-2.779l-2.985-3.674a.439.439 0 01.03-.586l3.713-3.712a.438.438 0 01.586-.03l3.674 2.984a12.725 12.725 0 012.779-1.152l.491-4.712a.438.438 0 01.436-.392L20.734 35c.224 0 .412.17.435.392l.493 4.712c.958.269 1.89.656 2.778 1.153l3.675-2.985a.438.438 0 01.585.03l3.72 3.712c.158.159.172.412.03.586l-2.992 3.675c.495.883.88 1.815 1.151 2.779l4.713.491a.437.437 0 01.392.436v5.252c0 .224-.17.412-.392.436l-4.712.492a12.695 12.695 0 01-1.152 2.778l2.991 3.674a.437.437 0 01-.03.587L28.7 66.919a.438.438 0 01-.586.03l-3.674-2.992c-.888.497-1.82.883-2.779 1.152l-.492 4.712a.438.438 0 01-.435.393zm-4.858-.876h4.463l.483-4.62a.437.437 0 01.328-.379 11.84 11.84 0 003.11-1.289.437.437 0 01.499.037l3.601 2.932 3.16-3.16-2.932-3.6a.438.438 0 01-.037-.5 11.826 11.826 0 001.289-3.11.438.438 0 01.379-.328l4.62-.482v-4.463l-4.62-.482a.438.438 0 01-.38-.328 11.906 11.906 0 00-1.288-3.11.437.437 0 01.037-.5l2.932-3.602-3.16-3.153-3.602 2.926a.438.438 0 01-.499.038 11.79 11.79 0 00-3.11-1.29.438.438 0 01-.328-.38l-.482-4.619h-4.463l-.482 4.62a.437.437 0 01-.327.379 11.89 11.89 0 00-3.11 1.29.438.438 0 01-.5-.038l-3.602-2.925-3.153 3.153 2.925 3.602c.116.143.131.342.038.5-.58.979-1.013 2.025-1.29 3.11a.44.44 0 01-.378.328l-4.62.481v4.464l4.62.482c.182.018.334.15.378.328.274 1.079.708 2.125 1.29 3.11a.435.435 0 01-.038.498L4.702 62.86l3.153 3.16 3.602-2.932a.44.44 0 01.5-.038c.98.58 2.025 1.013 3.11 1.29a.438.438 0 01.327.38l.482 4.618z"/><path d="M36.065 59.834l16.468-.1c.313 0 .467-.153.467-.464V38.5c0-.728-1.129-.728-1.129 0v20.205H36.065a.564.564 0 100 1.13z"/><path fill-rule="evenodd" clip-rule="evenodd" d="M60.903 6.458a.4.4 0 01-.152-.03L54.88 4.011a.4.4 0 01.304-.74l5.871 2.418a.4.4 0 01-.152.77zM66.872 15.864a.4.4 0 01-.369-.245l-2.442-5.861a.4.4 0 01.737-.308l2.443 5.861a.4.4 0 01-.369.553zM64.442 26.735a.4.4 0 01-.37-.552l2.418-5.87a.4.4 0 11.739.303l-2.418 5.872a.398.398 0 01-.37.247zM55.036 32.704a.4.4 0 01-.154-.767l5.86-2.443a.4.4 0 01.308.738l-5.86 2.442a.396.396 0 01-.154.03zM50.035 32.692a.398.398 0 01-.152-.03l-5.871-2.419a.4.4 0 11.304-.738l5.871 2.418a.4.4 0 01-.152.769zM40.638 26.73a.4.4 0 01-.37-.246l-2.441-5.861a.4.4 0 11.737-.307l2.442 5.86a.4.4 0 01-.368.553zM38.208 15.868a.4.4 0 01-.369-.552l2.418-5.872a.4.4 0 01.739.305l-2.418 5.871a.4.4 0 01-.37.248zM44.171 6.47a.4.4 0 01-.154-.768l5.861-2.442a.4.4 0 01.308.737L44.325 6.44a.396.396 0 01-.154.031z"/><path fill-rule="evenodd" clip-rule="evenodd" d="M52.534 5.965a2.986 2.986 0 01-2.983-2.982A2.986 2.986 0 0152.534 0a2.987 2.987 0 012.983 2.983 2.986 2.986 0 01-2.983 2.982zm0-5.166c-1.204 0-2.184.98-2.184 2.184 0 1.205.98 2.184 2.184 2.184 1.204 0 2.184-.98 2.184-2.184 0-1.205-.98-2.184-2.184-2.184zM52.534 35.934a2.986 2.986 0 01-2.983-2.982 2.986 2.986 0 012.983-2.983 2.986 2.986 0 012.983 2.983 2.986 2.986 0 01-2.983 2.982zm0-5.167c-1.204 0-2.184.98-2.184 2.185 0 1.204.98 2.184 2.184 2.184 1.204 0 2.184-.98 2.184-2.184 0-1.205-.98-2.185-2.184-2.185z"/><path fill-rule="evenodd" clip-rule="evenodd" d="M52.534 5.965a2.986 2.986 0 01-2.983-2.982A2.986 2.986 0 0152.534 0a2.987 2.987 0 012.983 2.983 2.986 2.986 0 01-2.983 2.982zm0-5.166c-1.204 0-2.184.98-2.184 2.184 0 1.205.98 2.184 2.184 2.184 1.204 0 2.184-.98 2.184-2.184 0-1.205-.98-2.184-2.184-2.184zM52.534 35.934a2.986 2.986 0 01-2.983-2.982 2.986 2.986 0 012.983-2.983 2.986 2.986 0 012.983 2.983 2.986 2.986 0 01-2.983 2.982zm0-5.167c-1.204 0-2.184.98-2.184 2.185 0 1.204.98 2.184 2.184 2.184 1.204 0 2.184-.98 2.184-2.184 0-1.205-.98-2.185-2.184-2.185zM63.13 10.354a2.986 2.986 0 01-2.983-2.982 2.986 2.986 0 012.983-2.983 2.986 2.986 0 012.982 2.983 2.987 2.987 0 01-2.982 2.982zm0-5.167c-1.205 0-2.185.98-2.185 2.185 0 1.204.98 2.184 2.184 2.184 1.205 0 2.185-.98 2.185-2.184 0-1.205-.98-2.185-2.184-2.185zM41.938 31.545a2.986 2.986 0 01-2.983-2.982 2.986 2.986 0 012.983-2.983 2.986 2.986 0 012.983 2.983 2.986 2.986 0 01-2.983 2.982zm0-5.167c-1.204 0-2.184.98-2.184 2.185 0 1.204.98 2.184 2.184 2.184 1.205 0 2.185-.98 2.185-2.184 0-1.205-.98-2.185-2.184-2.185z"/><path fill-rule="evenodd" clip-rule="evenodd" d="M63.13 10.354a2.986 2.986 0 01-2.983-2.982 2.986 2.986 0 012.983-2.983 2.986 2.986 0 012.982 2.983 2.987 2.987 0 01-2.982 2.982zm0-5.167c-1.205 0-2.185.98-2.185 2.185 0 1.204.98 2.184 2.184 2.184 1.205 0 2.185-.98 2.185-2.184 0-1.205-.98-2.185-2.184-2.185zM41.938 31.545a2.986 2.986 0 01-2.983-2.982 2.986 2.986 0 012.983-2.983 2.986 2.986 0 012.983 2.983 2.986 2.986 0 01-2.983 2.982zm0-5.167c-1.204 0-2.184.98-2.184 2.185 0 1.204.98 2.184 2.184 2.184 1.205 0 2.185-.98 2.185-2.184 0-1.205-.98-2.185-2.184-2.185zM67.518 20.95a2.986 2.986 0 01-2.983-2.983 2.986 2.986 0 012.983-2.983 2.986 2.986 0 012.983 2.983 2.986 2.986 0 01-2.983 2.983zm0-5.168c-1.204 0-2.184.98-2.184 2.185 0 1.204.98 2.184 2.184 2.184 1.205 0 2.185-.98 2.185-2.184 0-1.204-.98-2.185-2.185-2.185zM37.55 20.95a2.986 2.986 0 01-2.983-2.983 2.986 2.986 0 012.983-2.983 2.986 2.986 0 012.983 2.983 2.986 2.986 0 01-2.983 2.983zm0-5.168c-1.204 0-2.185.98-2.185 2.185 0 1.204.98 2.184 2.185 2.184 1.204 0 2.184-.98 2.184-2.184 0-1.204-.98-2.185-2.184-2.185z"/><path fill-rule="evenodd" clip-rule="evenodd" d="M67.518 20.95a2.986 2.986 0 01-2.983-2.983 2.986 2.986 0 012.983-2.983 2.986 2.986 0 012.983 2.983 2.986 2.986 0 01-2.983 2.983zm0-5.168c-1.204 0-2.184.98-2.184 2.185 0 1.204.98 2.184 2.184 2.184 1.205 0 2.185-.98 2.185-2.184 0-1.204-.98-2.185-2.185-2.185zM37.55 20.95a2.986 2.986 0 01-2.983-2.983 2.986 2.986 0 012.983-2.983 2.986 2.986 0 012.983 2.983 2.986 2.986 0 01-2.983 2.983zm0-5.168c-1.204 0-2.185.98-2.185 2.185 0 1.204.98 2.184 2.185 2.184 1.204 0 2.184-.98 2.184-2.184 0-1.204-.98-2.185-2.184-2.185zM41.938 10.354a2.986 2.986 0 01-2.983-2.982 2.986 2.986 0 012.983-2.983 2.986 2.986 0 012.983 2.983 2.986 2.986 0 01-2.983 2.982zm0-5.167c-1.204 0-2.184.98-2.184 2.185 0 1.204.98 2.184 2.184 2.184 1.205 0 2.185-.98 2.185-2.184 0-1.205-.98-2.185-2.184-2.185zM63.13 31.545a2.986 2.986 0 01-2.983-2.982 2.986 2.986 0 012.983-2.983 2.986 2.986 0 012.982 2.983 2.987 2.987 0 01-2.982 2.982zm0-5.167c-1.205 0-2.185.98-2.185 2.185 0 1.204.98 2.184 2.184 2.184 1.205 0 2.185-.98 2.185-2.184 0-1.205-.98-2.185-2.184-2.185z"/><path fill-rule="evenodd" clip-rule="evenodd" d="M41.938 10.354a2.986 2.986 0 01-2.983-2.982 2.986 2.986 0 012.983-2.983 2.986 2.986 0 012.983 2.983 2.986 2.986 0 01-2.983 2.982zm0-5.167c-1.204 0-2.184.98-2.184 2.185 0 1.204.98 2.184 2.184 2.184 1.205 0 2.185-.98 2.185-2.184 0-1.205-.98-2.185-2.184-2.185zM63.13 31.545a2.986 2.986 0 01-2.983-2.982 2.986 2.986 0 012.983-2.983 2.986 2.986 0 012.982 2.983 2.987 2.987 0 01-2.982 2.982zm0-5.167c-1.205 0-2.185.98-2.185 2.185 0 1.204.98 2.184 2.184 2.184 1.205 0 2.185-.98 2.185-2.184 0-1.205-.98-2.185-2.184-2.185z"/><path d="M50.884 21.723l-2.804-3.005c-.484-.544.358-1.296.842-.752l2.416 2.57 5.615-5.446c.528-.501 1.306.316.779.818l-6.038 5.848c-.174.175-.566.172-.81-.033z"/></g><defs><clipPath id="clip0"><path fill="#fff" transform="translate(.5)" d="M0 0h70v70H0z"/></clipPath></defs></svg>