<svg width="71" height="70" fill="none" xmlns="http://www.w3.org/2000/svg"><path d="M53.044 67.714a2.38 2.38 0 01-2.377-2.376 2.38 2.38 0 012.377-2.376 2.38 2.38 0 012.378 2.376 2.38 2.38 0 01-2.378 2.376zm0-3.624c-.688 0-1.248.56-1.248 1.247a1.249 1.249 0 002.496 0 1.25 1.25 0 00-1.248-1.247zM56.625 27.085h-7.727a.565.565 0 010-1.13h7.727a.565.565 0 010 1.13z" fill="#fff"/><path d="M62.026 21.85H42.68c-.257 0-.513.026-.767.073V.566c0-.312-.236-.565-.526-.565H4.993c-.29 0-.526.253-.526.565v35.267c0 .311.235.564.526.564H38.17v28.769c0 2.666 2.023 4.835 4.508 4.835h19.347c2.485 0 4.507-2.15 4.507-4.792V26.685c0-2.666-2.022-4.835-4.507-4.835zM42.68 22.98h19.347c1.905 0 3.455 1.662 3.455 3.705v3.45c-.01 0-.02-.006-.032-.006H41.91v-7.043c.255-.063.51-.107.768-.107zm-1.82-21.851v5.616H5.52V1.129h35.34zM5.52 7.874h35.34v27.393H5.52V7.873zm35.867 28.522c.29 0 .526-.253.526-.565v-4.573H65.45c.011 0 .02-.006.032-.007v29.338H39.223V36.396h2.163zm20.64 32.475H42.68c-1.906 0-3.456-1.662-3.456-3.706v-3.447h26.259v3.49c0 2.02-1.55 3.663-3.456 3.663z" fill="#fff"/><path d="M33.029 4.571H22.302c-.26 0-.47-.252-.47-.564 0-.312.21-.565.47-.565H33.03c.26 0 .47.253.47.565 0 .312-.21.564-.47.564zM38.949 4.571h-3.584a.565.565 0 010-1.129h3.584a.565.565 0 010 1.13zM18.146 5.877a1.87 1.87 0 010-3.74 1.87 1.87 0 010 3.74zm0-2.61a.74.74 0 00-.737.74c0 .41.33.742.737.742a.74.74 0 00.737-.741.74.74 0 00-.737-.742zM13.61 5.877a1.87 1.87 0 010-3.74 1.87 1.87 0 010 3.74zm0-2.61a.74.74 0 000 1.482.74.74 0 00.737-.741.74.74 0 00-.738-.742zM9.073 5.877a1.87 1.87 0 010-3.74 1.87 1.87 0 010 3.74zm0-2.61a.74.74 0 00-.737.74c0 .41.33.742.737.742a.74.74 0 000-1.483zM38.435 20.533H7.832a.57.57 0 01-.565-.574v-8.651a.57.57 0 01.565-.575h30.603a.57.57 0 01.565.575v8.65a.57.57 0 01-.565.575zM8.397 19.384H37.87v-7.502H8.397v7.502zM26.68 32.05h-6.715a.565.565 0 01-.565-.565v-7.421c0-.312.253-.564.565-.564h6.716c.312 0 .565.252.565.564v7.42a.565.565 0 01-.565.565zm-6.151-1.13h5.588v-6.292h-5.588v6.292zM14.548 32.05H7.83a.565.565 0 01-.564-.565v-7.421c0-.312.253-.564.564-.564h6.716c.312 0 .565.252.565.564v7.42a.563.563 0 01-.564.565zm-6.152-1.13h5.587v-6.292H8.396v6.292zM38.348 31.976H31.63a.565.565 0 01-.564-.564v-7.42c0-.312.253-.565.564-.565h6.717c.311 0 .564.253.564.564v7.42a.565.565 0 01-.564.565zm-6.152-1.129h5.587v-6.291h-5.587v6.291zM52.406 35.238c-5.848 0-10.606 4.795-10.606 10.687 0 5.893 4.758 10.688 10.606 10.688 5.847 0 10.605-4.795 10.605-10.688 0-5.892-4.758-10.687-10.605-10.687zm0 1.13c5.225 0 9.476 4.287 9.476 9.557a9.55 9.55 0 01-1.504 5.147 4.63 4.63 0 00-3.454-1.554h-.176l-1.405-.783-.129-.53a7.46 7.46 0 001.115-1.66c1.008-.353 1.507-1.806.962-2.712.147-.889.27-2.658-.139-3.735-.167-.475-.61-1.124-1.31-1.39a1.874 1.874 0 00-1.216-.034c-.727-1.026-1.87-1.442-3.201-1.145-3.929.859-3.52 4.515-3.237 6.118-.783.917-.177 2.663.993 2.922.36.713.672 1.222.975 1.59l-.14.571-1.376.752a.95.95 0 00-.278.019 4.605 4.605 0 00-3.668 1.958 9.55 9.55 0 01-1.764-5.534c-.001-5.27 4.25-9.558 9.476-9.558zm6.489 16.503c-3.794 3.617-9.944 3.368-13.46-.495.604-1.072 1.761-1.747 3.044-1.747.17 0 .43-.008.575-.087l1.721-.94a.565.565 0 00.279-.362l.269-1.102a.565.565 0 00-.148-.532c-.314-.316-.684-.917-1.13-1.837a.58.58 0 00-.633-.306c-.286-.08-.685-.92-.344-1.101a.564.564 0 00.289-.603c-.59-3.111.101-4.645 2.311-5.128 1.254-.282 1.897.381 2.233 1.023.148.267.501.37.769.221.291-.161.544-.197.77-.112.336.128.57.494.651.722.306.807.234 2.506.048 3.368a.565.565 0 00.151.517c.238.24.005 1.102-.375 1.118a.566.566 0 00-.493.332 6.342 6.342 0 01-1.23 1.822.565.565 0 00-.148.532l.269 1.102c.044.182.202.326.385.392l1.627.908c.178.098.403.07.598.07 1.1 0 2.134.514 2.78 1.362a9.37 9.37 0 01-.808.863zM36.965 61.717H5.09a.565.565 0 01-.564-.564V40.038a.565.565 0 011.129 0v20.55h31.308a.565.565 0 010 1.13z" fill="#fff"/></svg>