<svg width="80" height="80" fill="none" xmlns="http://www.w3.org/2000/svg"><path d="M80 0H0v80h80V0z" fill="#2B81BA"/><path d="M52.312 28.996l-.005-.003c-.754-.569-2.239-1.241-4.592-1.983h-.003l-.003-.002c-2.395-.77-4.334-1.538-5.792-2.31-4.006-2.13-6.198-5.128-6.198-8.994 0-1.969.564-3.75 1.7-5.306l.001-.002c1.149-1.568 2.766-2.759 4.795-3.596h.001l.001-.001c2.042-.835 4.306-1.243 6.776-1.243 2.495 0 4.76.448 6.77 1.371 2.26 1.022 3.882 2.636 5.227 4.67l-5.675 5.183c-1.026-.943-2.048-1.89-3.105-2.798l-.004-.003-.003-.003c-.703-.614-1.761-.99-3.323-.99-1.532 0-2.569.323-3.244.835l-.004.004-.005.003c-.661.49-.966 1.093-.966 1.898 0 .638.294 1.23 1.147 1.798.966.633 2.451 1.268 4.514 1.881 3.954 1.17 6.969 2.656 8.919 4.525 1.988 1.905 2.981 4.297 2.981 7.1 0 3.125-1.223 5.657-3.673 7.477l-.002.001-.002.002c-2.407 1.771-5.574 2.601-9.392 2.601-2.757 0-5.005-.744-7.162-1.682l-.003-.001-.002-.001c-2.47-1.092-4.708-3.048-6.465-5.069l6.207-4.695c.823.896 1.672 1.716 2.685 2.4 1.288.868 2.965 1.662 4.74 1.662 1.493 0 2.511-.296 3.177-.763.62-.45.928-1.038.928-1.887 0-.99-.337-1.63-.942-2.075l-.004-.004zM34.652 13.523H24.507v27.14h-8.942v-27.14H5.555v-7.52h29.097v7.52z" fill="#fff"/><path fill-rule="evenodd" clip-rule="evenodd" d="M22.91 46.666h6.026V73.78H22.91v-1.242a9.01 9.01 0 01-1.925 1.107l-.004.002c-1.015.411-2.11.613-3.281.613-2.644 0-4.932-1.011-6.837-2.991l-.001-.002C8.949 69.266 8 66.781 8 63.858c0-3.013.911-5.534 2.771-7.508 1.851-1.964 4.126-2.962 6.79-2.962 1.223 0 2.38.228 3.464.686.663.28 1.291.644 1.885 1.09v-8.498zm11.653 9.74c2-2.013 4.514-3.018 7.493-3.018 3.142 0 5.747.997 7.755 3.018 2.01 2.013 2.993 4.661 2.993 7.88v.013l-.03 1.507H37.637a4.25 4.25 0 001.37 2.062c.83.667 1.906 1.022 3.276 1.022 1.614 0 2.895-.42 4.056-1.529h6.465c-1.727 4.223-6.123 6.898-10.486 6.898-3.126 0-5.723-.971-7.732-2.944l-.002-.001c-2-1.978-2.996-4.455-2.996-7.387 0-2.995.986-5.518 2.975-7.52zm18.452-2.538h6.241l4.38 10.041 4.363-10.04h6.223l-8.627 19.91h-3.934l-8.646-19.91zm-5.651 7.624c-.314-1.04-.937-1.886-1.868-2.538-.92-.652-1.99-.977-3.213-.977-1.327 0-2.49.365-3.492 1.097-.628.457-1.21 1.263-1.746 2.418h10.319zm-32.51-1.612c.978-1.029 2.206-1.543 3.684-1.543 1.513 0 2.764.503 3.754 1.509.99 1.006 1.484 2.32 1.484 3.944 0 1.657-.495 3-1.484 4.03-.99 1.017-2.235 1.525-3.737 1.525-1.455 0-2.683-.52-3.684-1.56-.989-1.04-1.484-2.367-1.484-3.978 0-1.6.49-2.91 1.467-3.927z" fill="#fff"/></svg>