<svg width="30" height="30" viewbox="0 0 30 30" fill="none" xmlns="http://www.w3.org/2000/svg">
                <path d="M4.2565 22.723L4.28996 22.7465L4.32191 22.7619C4.32417 22.7631 4.32886 22.7656 4.3358 22.7697C4.35226 22.7792 4.38136 22.797 4.42074 22.8247C4.49943 22.8798 4.61952 22.9744 4.76204 23.1209C5.0442 23.411 5.42108 23.912 5.73691 24.7296C5.73965 24.7381 5.7431 24.7485 5.74732 24.7608C5.75739 24.7901 5.77186 24.8298 5.79135 24.8783C5.83029 24.9751 5.88966 25.1074 5.97478 25.2608C6.14459 25.5669 6.42043 25.9631 6.8466 26.3265C7.63843 27.0016 8.88519 27.5093 10.7656 27.2299C10.7682 27.6647 10.7711 28.1147 10.7737 28.5243C10.7761 28.8904 10.7783 29.2242 10.7798 29.4861H1.96053C1.1321 29.4861 0.460526 28.8145 0.460526 27.9861V1.97661C0.460526 1.14584 1.13147 0.474756 1.96005 0.476026C4.56136 0.480013 9.4356 0.486084 14.9992 0.486084C20.5568 0.486084 25.4082 0.480029 28.0004 0.476041C28.829 0.474767 29.5 1.14586 29.5 1.97664V27.9861C29.5 28.8145 28.8284 29.4861 28 29.4861H19.2385V29.4858V29.4786V29.4713V29.4639V29.4566V29.4491V29.4417V29.4342V29.4266V29.419V29.4114V29.4037V29.396V29.3882V29.3804V29.3725V29.3646V29.3567V29.3487V29.3407V29.3326V29.3245V29.3164V29.3082V29.3V29.2917V29.2834V29.275V29.2666V29.2582V29.2498V29.2412V29.2327V29.2241V29.2155V29.2068V29.1981V29.1894V29.1806V29.1718V29.1629V29.154V29.1451V29.1361V29.1271V29.1181V29.109V29.0999V29.0907V29.0815V29.0723V29.063V29.0537V29.0444V29.035V29.0256V29.0161V29.0067V28.9971V28.9876V28.978V28.9684V28.9587V28.949V28.9393V28.9296V28.9198V28.91V28.9001V28.8902V28.8803V28.8703V28.8603V28.8503V28.8403V28.8302V28.8201V28.8099V28.7997V28.7895V28.7793V28.769V28.7587V28.7483V28.738V28.7276V28.7171V28.7067V28.6962V28.6857V28.6751V28.6645V28.6539V28.6433V28.6326V28.6219V28.6112V28.6005V28.5897V28.5789V28.568V28.5572V28.5463V28.5353V28.5244V28.5134V28.5024V28.4914V28.4803V28.4692V28.4581V28.447V28.4358V28.4246V28.4134V28.4022V28.3909V28.3796V28.3683V28.357V28.3456V28.3342V28.3228V28.3114V28.2999V28.2884V28.2769V28.2654V28.2538V28.2423V28.2306V28.219V28.2074V28.1957V28.184V28.1723V28.1606V28.1488V28.137V28.1252V28.1134V28.1015V28.0897V28.0778V28.0659V28.054V28.042V28.03V28.0181V28.006V27.994V27.982V27.9699V27.9578V27.9457V27.9336V27.9214V27.9093V27.8971V27.8849V27.8727V27.8605V27.8482V27.8359V27.8237V27.8113V27.799V27.7867V27.7743V27.762V27.7496V27.7372V27.7248V27.7123V27.6999V27.6874V27.6749V27.6624V27.6499V27.6374V27.6249V27.6123V27.5997V27.5871V27.5746V27.5619V27.5493V27.5367V27.524V27.5114V27.4987V27.486V27.4733V27.4606V27.4478V27.4351V27.4223V27.4096V27.3968V27.384V27.3712V27.3584V27.3456V27.3328V27.3199V27.3071V27.2942V27.2813V27.2685V27.2556V27.2427V27.2297V27.2168V27.2039V27.191V27.178V27.1651V27.1521V27.1391V27.1261V27.1131V27.1001V27.0871V27.0741V27.0611V27.0481V27.035V27.022V27.009V26.9959V26.9829V26.9698V26.9567V26.9436V26.9306V26.9175V26.9044V26.8913V26.8782V26.8651V26.8519V26.8388V26.8257V26.8126V26.7995V26.7863V26.7732V26.76V26.7469V26.7338V26.7206V26.7075V26.6943V26.6811V26.668V26.6548V26.6417V26.6285V26.6153V26.6022V26.589V26.5758V26.5626V26.5495V26.5363V26.5231V26.51V26.4968V26.4836V26.4704V26.4573V26.4441V26.4309V26.4177V26.4046V26.3914V26.3782V26.3651V26.3519V26.3388V26.3256V26.3124V26.2993V26.2861V26.273V26.2598V26.2467V26.2336V26.2204V26.2073V26.1942V26.181V26.1679V26.1548V26.1417V26.1286V26.1155V26.1024V26.0893V26.0762V26.0631V26.05V26.037V26.0239V26.0108V25.9978V25.9848V25.9717V25.9587V25.9457V25.9326V25.9196V25.9066V25.8936V25.8806V25.8677V25.8547V25.8417V25.8288V25.8158V25.8029V25.79V25.777V25.7641V25.7512V25.7383V25.7255V25.7126V25.6997V25.6869V25.674V25.6612V25.6484V25.6356V25.6228V25.61V25.5972V25.5845V25.5717V25.559V25.5463V25.5336V25.5209V25.5082V25.4955V25.4828V25.4702V25.4575V25.4449V25.4323V25.4197V25.4071V25.3946V25.382V25.3695V25.357V25.3445V25.332V25.3195V25.307V25.2946V25.2822V25.2697V25.2573V25.245V25.2326V25.2202V25.2079V25.1956V25.1833V25.171V25.1587V25.1465V25.1343V25.1221V25.1099V25.0977V25.0855V25.0734V25.0613V25.0492V25.0371V25.025C19.2385 23.9918 19.0068 23.1606 18.6527 22.5463C20.0892 22.3048 21.5531 21.834 22.7238 20.828C24.1562 19.5971 25.0689 17.6378 25.0689 14.5764C25.0689 12.8848 24.5192 11.4684 23.5937 10.3374C23.808 9.6407 24.0901 8.12261 23.3445 6.19091L23.2593 5.97L23.0344 5.896L22.8781 6.37095C23.0344 5.896 23.0339 5.89584 23.0334 5.89567L23.0323 5.89534L23.0302 5.89465L23.0256 5.89319L23.0148 5.88996C23.0071 5.88768 22.998 5.88516 22.9876 5.88249C22.9668 5.87716 22.9409 5.87125 22.9097 5.86546C22.8473 5.85388 22.7644 5.84289 22.6603 5.838C22.4519 5.82821 22.1618 5.84304 21.7855 5.92458C21.0674 6.0802 20.0398 6.47777 18.6656 7.4064C17.4872 7.09209 16.2394 6.93619 15.0037 6.93081L14.9995 6.93082C13.762 6.9358 12.5143 7.09204 11.3373 7.40637C9.96209 6.4777 8.93357 6.08015 8.21483 5.92456C7.83825 5.84303 7.54782 5.82822 7.33926 5.838C7.23515 5.84289 7.15216 5.85387 7.08975 5.86544C7.05857 5.87122 7.03263 5.87712 7.01186 5.88245C7.00147 5.88511 6.99239 5.88762 6.98459 5.8899L6.97388 5.89313L6.96925 5.89458L6.96712 5.89527L6.96609 5.8956C6.9656 5.89577 6.9651 5.89593 7.12116 6.37095L6.9651 5.89593L6.73978 5.96995L6.65456 6.19128C5.91059 8.12334 6.19364 9.64149 6.40766 10.3376C5.48432 11.4679 4.93038 12.8839 4.93038 14.5764C4.93038 17.6311 5.8419 19.5907 7.27055 20.8252C8.44008 21.8358 9.90279 22.3121 11.3374 22.5576C11.127 22.9253 10.9604 23.3704 10.8612 23.8907C10.4658 24.0433 9.91953 24.1868 9.35424 24.1349C8.70006 24.075 7.96867 23.751 7.38122 22.72L7.37998 22.7177L7.36991 22.6998C7.36158 22.6852 7.35002 22.6653 7.33522 22.6409C7.30565 22.5921 7.263 22.5249 7.20733 22.4451C7.09647 22.2863 6.93141 22.0738 6.71227 21.8566C6.27798 21.4261 5.59786 20.9454 4.68314 20.879L4.66822 20.8779L4.65325 20.8777L4.64692 21.3777C4.65325 20.8777 4.65309 20.8777 4.65292 20.8777L4.65256 20.8777L4.65172 20.8777L4.64964 20.8777L4.64385 20.8776L4.62613 20.8777C4.61173 20.8778 4.59214 20.8782 4.56849 20.8791C4.52165 20.8808 4.45656 20.8845 4.38286 20.8929C4.25541 20.9073 4.02566 20.9429 3.83208 21.0561C3.72926 21.1162 3.59382 21.2231 3.51759 21.4023C3.43553 21.5952 3.45578 21.7912 3.52222 21.9538C3.63585 22.2319 3.9105 22.4806 4.2565 22.723Z" fill="#2B2B2B" stroke="white"/>
            </svg>