<svg fill="none" xmlns="http://www.w3.org/2000/svg" viewBox="0 0 24 25"><g clip-path="url(#clip0)" fill="#fff"><path d="M22.92 4.236l-2.64-2.635c-1.44-1.437-3.72-1.437-5.04 0L8.16 8.548c-.72.718-1.08 1.557-1.08 2.515 0 .958.36 1.916 1.08 2.515l1.8 1.796 1.68-1.676-1.8-1.797c-.24-.24-.36-.479-.36-.838 0-.36.12-.599.36-.838l6.96-6.947c.48-.479 1.2-.479 1.68 0l2.64 2.635c.48.479.48 1.198 0 1.677L18 10.823l1.68 1.677 3.24-3.234c1.32-1.317 1.32-3.712 0-5.03z"/><path d="M14.04 9.506l-1.68 1.677 1.8 1.796c.48.48.48 1.198 0 1.677L7.2 21.722c-.48.48-1.2.48-1.68 0l-2.64-2.635c-.24-.24-.36-.479-.36-.838 0-.36.12-.599.36-.839L6 14.177 4.32 12.5l-3.24 3.234C.36 16.452 0 17.29 0 18.249c0 .958.36 1.916 1.08 2.515l2.64 2.635a3.726 3.726 0 002.64 1.078c.96 0 1.8-.36 2.52-1.078l6.96-6.947c1.44-1.437 1.44-3.713 0-5.03l-1.8-1.916z"/></g><defs><clipPath id="clip0"><path fill="#fff" transform="translate(0 .523)" d="M0 0h24v23.953H0z"/></clipPath></defs></svg>