<svg viewBox="0 0 986 986" xmlns="http://www.w3.org/2000/svg" fill-rule="evenodd" clip-rule="evenodd" stroke-linejoin="round" stroke-miterlimit="2"><path fill="url(#_Linear1)" d="M0 0h985.307v985.307H0z"/><path d="M551.347 823.201c0 18.125-5.032 31.981-15.095 41.569-10.064 9.588-24.558 14.381-43.484 14.381h-30.716V769.354h33.946c17.473 0 31.066 4.706 40.779 14.119 9.713 9.413 14.57 22.656 14.57 39.728zm-18.926.601c0-26.285-12.291-39.428-36.874-39.428h-15.546v79.682h12.767c26.436 0 39.653-13.418 39.653-40.254zM574.928 816.743h89.295v15.02h-89.295zM664.223 879.151h-89.295l14.662-15.245h74.633v15.245zM592.792 784.525l-17.864-15.171h89.295v15.171h-71.431zM759.717 769.354H777.1l-35.887 109.797h-17.662l-35.746-109.797h17.242l21.377 68.267c1.122 3.254 2.313 7.447 3.575 12.579 1.262 5.132 2.079 8.95 2.453 11.453.608-3.805 1.542-8.211 2.804-13.218 1.261-5.006 2.289-8.711 3.084-11.115l21.377-67.966zM651.081 447.647l-23.404-9.902c-40.506-18.002-58.509-28.804-58.509-57.608 0-22.504 18.003-40.507 45.907-40.507 24.304 0 40.506 9.002 55.809 32.405l67.51-55.808c-29.705-42.307-70.211-59.409-123.319-59.409-84.613 0-138.621 54.008-138.621 125.119 0 77.411 45.007 113.417 113.417 143.121l23.404 9.902c43.206 18.903 69.31 30.605 69.31 63.009 0 27.005-25.203 46.808-64.809 46.808-41.407 0-66.611-19.803-85.513-46.808l-70.211 56.709c30.605 43.207 82.813 73.811 158.424 73.811 89.113 0 156.624-46.807 156.624-132.32 0-79.212-45.007-114.317-126.019-148.522zm-93.628-338.699H189.298v92.714h137.721v378.957h92.714V201.662h137.72v-92.714z" fill="#fff" fill-rule="nonzero"/><defs><linearGradient id="_Linear1" x1="0" y1="0" x2="1" y2="0" gradientUnits="userSpaceOnUse" gradientTransform="scale(-1014.844) rotate(59.326 .433 -1.191)"><stop offset="0" stop-color="#007acc"/><stop offset="1" stop-color="#00a2ff"/></linearGradient></defs></svg>