<svg width="63" height="70" fill="none" xmlns="http://www.w3.org/2000/svg"><path fill="#2B81BA" d="M0 0h50.167v50.167H0z"/><path d="M60.9 10.5H10.5v50.4h50.4V10.5z" fill="#2B81BA"/><path fill-rule="evenodd" clip-rule="evenodd" d="M62.015 9.385H9.385v52.63h52.63V9.385zM60.9 10.5v50.4H10.5V10.5h50.4z" fill="#fff"/><path d="M43.456 28.768l-.002-.003c-.476-.358-1.411-.781-2.894-1.249h-.003c-1.51-.486-2.73-.97-3.65-1.456-2.523-1.342-3.904-3.23-3.904-5.667 0-1.24.355-2.361 1.07-3.342l.002-.002c.723-.987 1.742-1.738 3.02-2.265h.001c1.287-.527 2.714-.784 4.27-.784 1.572 0 2.998.283 4.264.864 1.424.644 2.446 1.66 3.294 2.942l-3.576 3.265c-.646-.594-1.29-1.19-1.956-1.762l-.002-.002-.002-.002c-.443-.387-1.11-.624-2.094-.624-.965 0-1.618.204-2.043.526l-.003.002-.003.003c-.416.308-.609.688-.609 1.195 0 .402.186.775.723 1.133.608.399 1.544.799 2.844 1.185 2.49.737 4.39 1.673 5.619 2.85 1.252 1.201 1.878 2.708 1.878 4.474 0 1.969-.77 3.564-2.314 4.71l-.002.001c-1.517 1.117-3.512 1.64-5.918 1.64-1.737 0-3.153-.469-4.511-1.06h-.002l-.002-.001c-1.556-.688-2.966-1.92-4.073-3.194l3.91-2.957c.52.564 1.054 1.08 1.692 1.511.812.547 1.868 1.048 2.986 1.048.94 0 1.582-.187 2.002-.481.39-.283.584-.654.584-1.189 0-.624-.212-1.026-.593-1.307l-.003-.002zM32.33 19.02h-6.39v17.098h-5.634V19.02H14v-4.737h18.33v4.738z" fill="#fff"/><path fill-rule="evenodd" clip-rule="evenodd" d="M24.934 39.9h3.796v17.081h-3.796v-.783a5.68 5.68 0 01-1.213.698l-.003.001c-.639.26-1.33.386-2.067.386-1.666 0-3.107-.637-4.307-1.884l-.001-.001c-1.205-1.26-1.803-2.826-1.803-4.667 0-1.899.574-3.487 1.746-4.73 1.166-1.238 2.6-1.866 4.277-1.866.77 0 1.5.143 2.183.432.417.176.813.405 1.188.686V39.9zm7.34 6.136c1.261-1.268 2.844-1.901 4.721-1.901 1.98 0 3.62.628 4.886 1.901 1.267 1.268 1.886 2.936 1.886 4.965v.007l-.02.95h-9.535c.165.532.454.961.863 1.3.523.42 1.2.643 2.063.643 1.017 0 1.824-.264 2.556-.963h4.072c-1.087 2.66-3.857 4.345-6.605 4.345-1.97 0-3.606-.611-4.872-1.855-1.261-1.246-1.889-2.807-1.889-4.654 0-1.887.621-3.476 1.875-4.738zM43.9 44.437h3.932l2.76 6.326 2.748-6.326h3.921l-5.435 12.544h-2.479L43.9 44.437zm-3.56 4.803c-.198-.656-.59-1.188-1.177-1.599-.579-.41-1.254-.616-2.023-.616-.837 0-1.57.23-2.2.692-.396.288-.763.796-1.1 1.523h6.5zm-20.48-1.016c.615-.648 1.389-.972 2.32-.972.953 0 1.742.317 2.365.95.623.635.935 1.463.935 2.486 0 1.044-.312 1.89-.935 2.538-.623.641-1.408.962-2.354.962-.917 0-1.69-.328-2.32-.983-.624-.656-.936-1.491-.936-2.507 0-1.008.308-1.833.924-2.474z" fill="#fff"/></svg>