<svg fill="currentColor" xmlns="http://www.w3.org/2000/svg" viewBox="0 0 25 20"><path d="M23.7 1H1.2v18h22.5V1zm-1.875 1.385s-6 5.538-9.375 8.873L3.075 2.385h18.75zm.375 15.23H2.7v-13.5l9.29 8.702a.677.677 0 00.46.183c.164 0 .328-.06.46-.183l9.29-8.702v13.5z" fill="currentColor"/><path fill-rule="evenodd" clip-rule="evenodd" d="M.719.519h23.462v18.48L23.7 19h.48v.48H.72V19H1.2.719v-7.031V.519zm.962 18h21.538V1.481H1.681v17.038zM22.15 2.738l-.326-.353v-.481h1.23l-.904.834zm-17.868.128l8.16 7.723a371.298 371.298 0 015.631-5.37 729.63 729.63 0 012.524-2.353H4.283zm17.542-.962v.48l.326.354-.264.244a600.092 600.092 0 00-3.155 2.94c-1.922 1.8-4.261 4.015-5.944 5.678l-.33.327L1.867 1.904h19.957zm.856 1.102v15.09H22.2v-.48.48H2.219V3.006l10.097 9.458c.044.04.09.055.134.055.043 0 .09-.015.134-.055l10.097-9.458zm-.962 14.128V5.224l-8.482 7.946c-.222.205-.502.31-.787.31-.285 0-.565-.105-.787-.31l-.003-.002-8.48-7.943v11.91H21.72z" fill="currentColor"/></svg>