<svg width="71" height="70" fill="none" xmlns="http://www.w3.org/2000/svg"><path d="M38.405 25.378h-5.7c-.74 0-.565-1.011-.565-1.488 0-2.529-.94-4.9-2.645-6.678a8.233 8.233 0 01-2.306-5.826c.055-4.57 3.856-8.23 8.448-8.207 4.568.044 8.283 3.77 8.283 8.306 0 2.12-.804 4.138-2.265 5.683-1.732 1.832-2.686 4.18-2.686 6.612 0 .485.199 1.598-.564 1.598zM33.27 24.25h4.572c0-2.949.946-5.69 2.994-7.856a7.12 7.12 0 001.957-4.908c0-3.92-3.214-7.139-7.165-7.177-3.998-.034-7.262 3.142-7.309 7.091a7.108 7.108 0 001.992 5.032c2.042 2.128 2.96 4.906 2.96 7.818zM34.99 0h1.13v1.789h-1.13V0zM29.563 1.72l.976-.567.902 1.549-.976.568-.902-1.55zM25.747 5.896l.561-.98 1.561.895-.56.979-1.562-.894zM24.546 10.296h1.802v1.129h-1.802v-1.13zM44.697 10.36h1.802v1.13h-1.802v-1.13zM43.219 5.894l1.562-.895.56.98-1.562.894-.56-.98zM39.65 2.752l.902-1.549.976.568-.902 1.549-.975-.568z" fill="#fff"/><path d="M29.8 11.668l3.704 1.88v-1.221l-2.108-1.042 2.108-1.042V9.02l-3.703 1.88v.767zM34.04 13.582h1.186l2.082-5.314h-1.193l-2.075 5.314zM37.606 9.023v1.221l2.123 1.041-2.123 1.04v1.223l3.658-1.85.044-.023v-.78l-3.702-1.872zM47.826 49.922h-.69a.564.564 0 110-1.13h.69a.564.564 0 110 1.13zM25.333 31.306h4.663v1.13h-4.663v-1.13zM31.457 31.237H48.09v1.13H31.457v-1.13zM26.563 34.358h2.202v1.13h-2.202v-1.13zM30.562 34.358h5.586v1.13h-5.586v-1.13zM37.637 34.358h7.738v1.13h-7.738v-1.13z" fill="#fff"/><path d="M50.045 26.476H21c-1.14 0-2.067.922-2.067 2.055v21.65c0 1.132.927 2.054 2.067 2.054h10.853a7.229 7.229 0 001.74 1.103c-4.474 1.436-7.748 5.92-7.748 11.222v4.875c0 .312.253.565.565.565h20.496a.564.564 0 00.565-.565V64.56c0-5.351-3.337-9.865-7.873-11.257a7.224 7.224 0 001.657-1.068h8.78a2.073 2.073 0 002.077-2.064V28.53a2.064 2.064 0 00-2.067-2.054zm-29.983 2.055c0-.51.42-.926.938-.926h29.045c.518 0 .938.415.938.926v18.025h-7.3c-.213-3.686-3.324-6.624-7.129-6.624-3.805 0-6.916 2.938-7.13 6.624h-9.362V28.53zM21 51.105a.933.933 0 01-.938-.925v-2.496h9.38a6.909 6.909 0 001.356 3.421H21zM46.341 64.56v4.31H26.974v-4.31c0-5.834 4.344-10.58 9.683-10.58 5.34 0 9.684 4.746 9.684 10.58zm-9.787-11.71c-3.32 0-6.02-2.644-6.02-5.894s2.7-5.895 6.02-5.895c3.32 0 6.02 2.645 6.02 5.895 0 3.25-2.7 5.895-6.02 5.895zm13.482-1.745h-7.727a6.923 6.923 0 001.351-3.42h7.323v2.485a.942.942 0 01-.947.935z" fill="#fff"/></svg>