<svg width="71" height="70" fill="none" xmlns="http://www.w3.org/2000/svg"><g clip-path="url(#clip0)" fill="#fff"><path d="M53.21 58.679c0-.829-.673-1.503-1.5-1.503a1.503 1.503 0 00-.566 2.893v1.75h1.13v-1.75c.548-.224.936-.762.936-1.39z"/><path d="M58.08 50.544V43.75c0-2.547-1.7-4.73-4.1-5.634a19.789 19.789 0 001.397-7.32c0-10.974-8.917-19.904-19.877-19.904-10.96 0-19.877 8.93-19.877 19.905 0 10.976 8.917 19.905 19.877 19.905 3.321 0 6.572-.836 9.469-2.411v2.53a10.767 10.767 0 00-4.028 8.395C40.941 65.163 45.771 70 51.71 70c5.938 0 10.768-4.837 10.768-10.783 0-3.557-1.736-6.708-4.397-8.673zM34.278 12.066c-2.792 2.272-4.967 5.508-6.335 9.264a14.895 14.895 0 01-5.04-4.415 18.655 18.655 0 0111.375-4.85zm-12.196 5.64a16.028 16.028 0 005.492 4.707 27.637 27.637 0 00-1.253 7.82h-9.555a18.724 18.724 0 015.316-12.527zm-5.316 13.656h9.556c.061 2.667.49 5.252 1.246 7.65a16.323 16.323 0 00-5.645 4.72 18.721 18.721 0 01-5.156-12.37zm5.97 13.17a15.174 15.174 0 015.203-4.442c1.412 3.866 3.682 7.18 6.594 9.46a18.662 18.662 0 01-11.797-5.017zm12.2 3.907c-2.637-2.163-4.693-5.247-5.98-8.834a16.183 16.183 0 015.98-1.315v10.148zm0-11.278c-2.225.06-4.372.533-6.339 1.372a26.578 26.578 0 01-1.147-7.171h7.485v5.8zm0-6.928h-7.487a26.618 26.618 0 011.151-7.332 16.572 16.572 0 006.335 1.374v5.958zm0-7.087a15.447 15.447 0 01-5.978-1.318c1.285-3.594 3.337-6.687 5.977-8.853v10.171zm24.817 30.769l-2.897 1.675a6.298 6.298 0 00-4.582-2.655v-3.343a9.645 9.645 0 017.479 4.323zM56.95 43.75v6.056a10.673 10.673 0 00-10.852.226V43.75c0-2.73 2.435-4.952 5.426-4.952 2.992 0 5.426 2.221 5.426 4.952zm-4.06-5.946a7.045 7.045 0 00-1.366-.135c-2.407 0-4.509 1.213-5.65 3.01a16.797 16.797 0 00-2.475-1.574 27.58 27.58 0 001.279-7.744h9.555a18.645 18.645 0 01-1.344 6.443zm1.344-7.572h-9.555a27.6 27.6 0 00-1.328-8.061 16.008 16.008 0 005.269-4.761c3.341 3.285 5.465 7.808 5.614 12.822zm-6.447-13.598a14.884 14.884 0 01-4.815 4.454c-1.372-3.655-3.518-6.799-6.25-9.023a18.652 18.652 0 0111.065 4.57zm-11.722-3.66c2.589 2.124 4.616 5.139 5.905 8.645a15.402 15.402 0 01-5.905 1.511V12.975zm0 11.285a16.535 16.535 0 006.275-1.565 26.583 26.583 0 011.21 7.538h-7.485V24.26zm0 7.102h7.484a26.563 26.563 0 01-1.17 7.245 17.33 17.33 0 00-6.314-1.432v-5.813zm0 6.941c2.074.084 4.1.546 5.955 1.375-1.29 3.556-3.337 6.612-5.956 8.76V38.303zm.413 11.238c2.884-2.262 5.14-5.537 6.551-9.36.82.44 1.6.95 2.328 1.528a5.65 5.65 0 00-.388 2.042v3.247a18.68 18.68 0 01-8.491 2.543zm14.667.05v3.344a6.3 6.3 0 00-4.582 2.655l-2.896-1.675a9.643 9.643 0 017.478-4.323zm-8.044 5.3l2.896 1.675a6.264 6.264 0 00-.59 2.65c0 .949.214 1.845.59 2.652l-2.896 1.675a9.592 9.592 0 010-8.651zm8.044 13.952a9.641 9.641 0 01-7.478-4.323l2.896-1.676a6.3 6.3 0 004.582 2.656v3.343zm-4.61-9.626c0-2.857 2.322-5.182 5.175-5.182a5.184 5.184 0 015.174 5.182c0 2.858-2.321 5.183-5.175 5.183-2.853 0-5.173-2.325-5.173-5.183zm5.739 9.637v-3.36a6.296 6.296 0 004.584-2.648l2.897 1.675a9.639 9.639 0 01-7.481 4.333zm5.148-6.986a6.27 6.27 0 00.59-2.651c0-.948-.215-1.844-.59-2.651l2.896-1.675a9.582 9.582 0 01-.003 8.65l-2.893-1.673zM13.391 30.174H6.103a2.836 2.836 0 00-2.774-2.27A2.835 2.835 0 00.5 30.739a2.835 2.835 0 002.83 2.833 2.836 2.836 0 002.773-2.269h7.289v-1.128zM3.33 32.442a1.705 1.705 0 010-3.409 1.705 1.705 0 010 3.41zM24.74 11.256l-3.645-6.309a2.833 2.833 0 00.58-3.535 2.833 2.833 0 00-4.91 2.833 2.836 2.836 0 003.352 1.266l3.644 6.31.979-.565zm-6.997-7.575a1.705 1.705 0 012.954-1.704 1.704 1.704 0 01-2.954 1.704z"/><path d="M23.762 49.654l-3.644 6.309a2.836 2.836 0 00-3.352 1.266 2.833 2.833 0 001.04 3.866c1.354.78 3.09.318 3.87-1.033a2.834 2.834 0 00-.58-3.535l3.644-6.31-.978-.563zm-3.691 7.519a1.704 1.704 0 01.626 2.325 1.706 1.706 0 01-2.953-1.704 1.705 1.705 0 012.327-.621zM47.285 11.82l3.644-6.308a2.836 2.836 0 003.352-1.267A2.833 2.833 0 0053.24.38a2.836 2.836 0 00-3.87 1.033 2.834 2.834 0 00.58 3.535l-3.645 6.309.979.564zm3.69-7.518a1.704 1.704 0 01-.626-2.325 1.706 1.706 0 012.954 1.704 1.705 1.705 0 01-2.327.62zM67.67 28.025a2.836 2.836 0 00-2.773 2.269h-7.289v1.128h7.289a2.836 2.836 0 002.773 2.27 2.835 2.835 0 000-5.667zm0 4.538a1.705 1.705 0 010-3.41 1.705 1.705 0 010 3.41z"/></g><defs><clipPath id="clip0"><path fill="#fff" transform="translate(.5)" d="M0 0h70v70H0z"/></clipPath></defs></svg>