<svg width="71" height="70" fill="none" xmlns="http://www.w3.org/2000/svg"><g clip-path="url(#clip0)" fill="#fff"><path d="M19.966 4.233a.564.564 0 01-.565-.564V.565a.564.564 0 111.13 0v3.104a.564.564 0 01-.565.564zM8.85 8.724a.56.56 0 01-.393-.16L6.203 6.367a.565.565 0 01.787-.809l2.254 2.195c.354.344.1.97-.393.97zM4.253 19.549H1.065a.564.564 0 110-1.13h3.188a.564.564 0 110 1.13zM38.888 19.529h-3.19a.564.564 0 110-1.13h3.19a.564.564 0 110 1.13zM31.087 8.709c-.493 0-.748-.625-.394-.969l2.255-2.195a.564.564 0 11.787.81L31.48 8.548a.561.561 0 01-.393.16zM12.884 19.539a.564.564 0 01-.565-.565c0-4.124 3.44-7.478 7.667-7.478a.564.564 0 110 1.13c-3.605 0-6.538 2.847-6.538 6.348a.564.564 0 01-.564.565z"/><path d="M32.163 18.964c0-6.55-5.468-11.878-12.187-11.878-6.72 0-12.186 5.328-12.186 11.878 0 4.694 2.8 8.903 7.167 10.826v7.715c0 2.575 2.627 4.493 5.033 4.493 2.406 0 5.033-1.918 5.033-4.493l-.029-7.715c4.367-1.922 7.169-6.132 7.169-10.826zm-23.244 0c0-5.927 4.96-10.749 11.057-10.749s11.058 4.822 11.058 10.749c0 4.357-2.676 8.254-6.816 9.928a.565.565 0 00-.353.523v1.606h-3.313v-7.77l1.852-2.315a2.966 2.966 0 00-.19-3.917c-1.217-1.25-3.284-1.177-4.432.128a2.973 2.973 0 00-.14 3.741l1.78 2.355v7.778h-3.336v-1.605c0-.23-.14-.437-.352-.523-4.14-1.675-6.815-5.572-6.815-9.93zm7.167 18.296v-2.033h7.808v2.033h-7.808zm7.78-5.11V34.1h-7.78V32.15h7.78zM20 22.134l-1.456-1.927a1.846 1.846 0 01.1-2.332c.713-.81 2.009-.84 2.761-.068.644.661.695 1.704.119 2.424L20 22.134zm-.01 18.735c-1.644 0-3.134-.996-3.727-2.48h7.455c-.593 1.485-2.084 2.48-3.728 2.48zM55.258 70H51.13a.565.565 0 01-.557-.47l-.64-3.764a13.639 13.639 0 01-3.612-1.479l-3.184 2.232a.564.564 0 01-.72-.06l-2.936-2.896a.564.564 0 01-.06-.734l2.253-3.1a13.287 13.287 0 01-1.492-3.553l-3.822-.632a.564.564 0 01-.472-.557v-4.073c0-.276.2-.512.472-.557l3.822-.633c.321-1.25.823-2.442 1.493-3.553l-2.256-3.132a.565.565 0 01.061-.732l2.936-2.896a.565.565 0 01.722-.058l3.153 2.23a13.65 13.65 0 013.61-1.478l.642-3.794a.565.565 0 01.556-.47h4.129c.275 0 .51.198.556.47l.64 3.794c1.272.318 2.484.814 3.613 1.479l3.184-2.233a.564.564 0 01.72.061l2.935 2.896c.2.196.224.508.06.734l-2.253 3.1c.67 1.111 1.17 2.303 1.493 3.553l3.85.633c.274.045.474.28.474.557v4.073c0 .276-.2.512-.473.557l-3.851.633a13.262 13.262 0 01-1.494 3.553l2.256 3.132a.565.565 0 01-.062.732l-2.935 2.896a.563.563 0 01-.722.058l-3.154-2.23a13.649 13.649 0 01-3.61 1.478l-.64 3.764a.565.565 0 01-.557.47zm-3.652-1.129h3.175l.623-3.662a.565.565 0 01.435-.457 12.538 12.538 0 003.951-1.616.564.564 0 01.625.017l3.07 2.17L65.74 63.1l-2.195-3.047a.564.564 0 01-.016-.635c.77-1.2 1.322-2.51 1.636-3.892a.564.564 0 01.46-.432l3.746-.617v-3.114l-3.747-.616a.565.565 0 01-.46-.432 12.19 12.19 0 00-1.636-3.892.562.562 0 01.018-.637l2.192-3.016-2.255-2.224-3.1 2.173a.565.565 0 01-.623.017 12.543 12.543 0 00-3.951-1.616.567.567 0 01-.435-.458l-.623-3.692h-3.175l-.623 3.692a.566.566 0 01-.435.458c-1.404.31-2.733.854-3.95 1.616a.564.564 0 01-.626-.018l-3.07-2.17-2.255 2.224 2.195 3.047c.136.188.142.44.017.635a12.184 12.184 0 00-1.637 3.892.564.564 0 01-.458.432l-3.717.616v3.115l3.717.616a.564.564 0 01.458.431 12.193 12.193 0 001.636 3.893.562.562 0 01-.018.637L40.62 63.1l2.255 2.225 3.1-2.174a.563.563 0 01.624-.016 12.538 12.538 0 003.95 1.616c.224.05.397.23.435.457l.623 3.662z"/><path d="M52.566 40.033h1.224v1.129h-1.224v-1.13zM43.479 44.247l.887-.874.792.804-.886.874-.793-.804zM40.108 52.332h1.129v1.207h-1.13v-1.207zM43.483 61.594l.793-.804.886.874-.792.804-.887-.874zM52.566 64.709h1.224v1.129h-1.224v-1.13zM61.18 61.718l.887-.875.793.804-.888.875-.792-.804zM65.12 52.332h1.13v1.207h-1.13v-1.207zM61.18 44.154l.792-.804.887.875-.793.803-.887-.874zM53.194 60.38c-4.139 0-7.506-3.326-7.506-7.413s3.367-7.412 7.506-7.412S60.7 48.88 60.7 52.967s-3.367 7.412-7.506 7.412zm0-13.696c-3.516 0-6.377 2.819-6.377 6.283 0 3.465 2.86 6.283 6.377 6.283s6.377-2.818 6.377-6.283c0-3.464-2.86-6.283-6.377-6.283z"/><path d="M51.65 55.197l-1.653-1.854a.564.564 0 11.842-.752l1.265 1.42 3.475-3.307a.565.565 0 01.779.818l-3.898 3.709c-.174.175-.566.171-.81-.034zM34.2 58.633H19.966a.564.564 0 01-.565-.565V44.63a.564.564 0 111.13 0v12.874H34.2a.564.564 0 110 1.129z"/></g><defs><clipPath id="clip0"><path fill="#fff" transform="translate(.5)" d="M0 0h70v70H0z"/></clipPath></defs></svg>