<svg fill="none" preserveAspectRatio="xMaxYMid meet" xmlns="http://www.w3.org/2000/svg" viewBox="0 0 508 414"><path fill-rule="evenodd" clip-rule="evenodd" d="M261.812 58.891h-90.357V264.1H89.818V58.891H.677V.627h261.135v58.264zM170.455 263.1H90.818V57.891H1.677V1.627h259.135v56.264h-90.357V263.1zm150.965-80.343c18.4 16.825 92.599 42.29 105.897 8.881 7.129-17.913-30.442-27.244-63.025-35.336-16.187-4.02-31.143-7.735-38.775-12.044l-.012-.005c-35.672-15.927-55.19-38.358-55.19-67.289 0-14.725 5.025-28.047 15.139-39.697l.011-.013c10.23-11.733 24.63-20.644 42.7-26.905l.012-.004.013-.005c18.184-6.25 38.348-9.302 60.347-9.302 22.22 0 42.381 3.356 60.284 10.263 19.785 7.51 34.078 19.302 45.938 34.153.208.26.415.521.621.783l-48.772 36.178c-17.399-13.44-33.657-22.377-59.084-25.783-16.029-2.148-39.014 2.313-39.014 18.542 0 17.18 28.09 24.664 51.864 29.485 48.447 9.824 105.98 42.002 105.98 86.979 0 23.38-10.897 42.32-32.717 55.937l-.017.011-.017.01c-21.436 13.254-49.639 19.466-83.647 19.466-47.289 0-90.111-20.607-120.661-49.814a165.33 165.33 0 01-.742-.713l52.867-33.778zm127.759-172.39c20.329 7.717 34.915 19.917 46.987 35.252l.636.809-50.206 37.24-.599-.462c-17.303-13.364-33.4-22.207-58.605-25.583-7.892-1.057-17.475-.48-25.038 2.326-7.567 2.807-12.844 7.714-12.844 15.225 0 7.95 6.491 13.87 16.436 18.47 9.878 4.566 22.741 7.624 34.626 10.034 24.338 4.936 50.973 15.486 71.549 30.48 20.559 14.982 35.233 34.532 35.233 57.48 0 23.757-11.102 43.003-33.188 56.786l-.016.01-.021.013c-21.649 13.385-50.057 19.615-84.173 19.615-47.968 0-91.342-21.07-122.098-50.808l-.91-.88 54.58-34.873.567.518c4.48 4.097 12.45 8.791 22.162 13.005 9.692 4.205 21.036 7.898 32.212 10.029 11.189 2.134 22.133 2.688 31.059.682 8.901-2 15.693-6.513 18.86-14.467 1.228-3.085 1.008-5.831-.324-8.366-1.357-2.583-3.907-5.015-7.461-7.313-7.112-4.597-17.888-8.432-29.838-11.866-8.021-2.305-16.502-4.411-24.689-6.444-4-.994-7.93-1.97-11.702-2.943-11.399-2.941-21.417-5.871-27.307-9.183-35.825-16.003-55.752-38.7-55.752-68.189 0-14.975 5.117-28.527 15.384-40.353l.011-.013.001-.001c10.373-11.897 24.939-20.89 43.126-27.193l.015-.005.012-.004c.001 0 0 0 0 0C346.17 3.102 366.447.038 388.537.038c22.319 0 42.605 3.37 60.642 10.33z" fill="#2B81BA"/><path fill-rule="evenodd" clip-rule="evenodd" d="M166.775 378.025c6.495-5.594 9.743-12.897 9.743-21.908 0-8.826-3.248-15.973-9.743-21.442-6.495-5.47-14.709-8.204-24.642-8.204-9.704 0-17.765 2.797-24.184 8.39-6.418 5.531-9.627 12.648-9.627 21.349 0 8.763 3.247 15.972 9.742 21.628 6.571 5.656 14.632 8.484 24.184 8.484 9.857 0 18.032-2.766 24.527-8.297zm-49.48-43.92c-6.645 5.727-9.973 13.122-9.973 22.105 0 9.046 3.368 16.533 10.085 22.382l.004.004c6.772 5.828 15.072 8.726 24.837 8.726 10.055 0 18.472-2.827 25.176-8.536l.004-.004c6.728-5.794 10.09-13.38 10.09-22.665 0-9.107-3.368-16.54-10.099-22.207-6.704-5.646-15.159-8.439-25.286-8.439-9.908 0-18.213 2.861-24.838 8.634zm215.497 10.519h-70.873l.834-1.488c3.561-6.359 7.487-10.903 11.817-13.513 6.747-4.084 14.572-6.11 23.44-6.11 8.173 0 15.382 1.806 21.593 5.45 6.277 3.638 10.543 8.406 12.699 14.319l.49 1.342zm-13.693-14.797c-6.036-3.543-13.066-5.314-21.089-5.314-8.711 0-16.352 1.989-22.923 5.966-3.904 2.352-7.533 6.401-10.89 12.145-.191.328-.382.661-.572 1h67.738c-.123-.337-.253-.67-.39-1-2.168-5.2-6.125-9.466-11.874-12.797zm-149.263-21.216a62.495 62.495 0 00-11.376-5.316c-7.119-2.491-14.715-3.727-22.745-3.727-17.483 0-32.416 5.424-44.568 16.103-12.208 10.731-18.193 24.435-18.193 40.818 0 15.894 6.229 29.399 18.787 40.277l.009.008c12.503 10.764 27.527 16.264 44.882 16.264 7.683 0 14.879-1.099 21.541-3.334l.024-.009c3.944-1.346 7.823-3.16 11.639-5.419a69.73 69.73 0 001-.602v6.753h39.559V263.024h-39.559v46.196a68.358 68.358 0 00-1-.609zm2-44.587v46.994l-1.528-.949a61.537 61.537 0 00-12.178-5.83c-7.005-2.451-14.489-3.671-22.415-3.671-17.259 0-31.952 5.347-43.907 15.855-11.985 10.533-17.854 23.959-17.854 40.066 0 15.594 6.095 28.826 18.441 39.521h.001l.007.006c12.314 10.602 27.104 16.022 44.229 16.022 7.586 0 14.673-1.085 21.22-3.282m.003-.001l.019-.006c4.213-1.438 8.357-3.422 12.439-5.928l1.523-.935v7.541h37.559V264.024h-37.559m175.59 51.953c-13.184-10.99-30.283-16.409-50.906-16.409-19.558 0-36.056 5.463-49.19 16.411-13.059 10.888-19.53 24.603-19.53 40.883 0 15.94 6.535 29.409 19.671 40.16l.01.008c13.188 10.727 30.236 16.008 50.758 16.008 28.221 0 56.655-14.123 68.327-36.504.173-.331.342-.665.508-1h-42.438c-7.625 6.033-16.031 8.311-26.626 8.311-8.995 0-16.054-1.928-21.506-5.553-3.94-2.702-6.814-6.077-8.589-10.215a23.161 23.161 0 01-.402-1h99.366l.195-8.191v-.066c0-17.503-6.447-31.903-19.648-42.843zm18.648 42.909v-.066c0-17.223-6.327-31.334-19.286-42.073l-.002-.002c-12.967-10.808-29.822-16.177-50.266-16.177-19.362 0-35.623 5.404-48.55 16.179-12.839 10.704-19.17 24.141-19.17 40.115 0 15.622 6.386 28.813 19.303 39.385m.002.001l.007.006c12.971 10.551 29.78 15.784 50.127 15.784 27.758 0 55.59-13.804 67.196-35.504h-40.454c-7.771 6.045-16.337 8.311-26.971 8.311-9.137 0-16.403-1.959-22.06-5.721l-.006-.004-.005-.004c-4.407-3.021-7.556-6.881-9.362-11.687l-.509-1.352h99.835l.171-7.191m43.356-56.707h-40.972l56.757 108.248h25.827l56.635-108.248h-40.856l-28.643 54.588-28.748-54.588zm57.995 1l-29.246 55.737-29.353-55.737h-38.715l55.708 106.248h24.618l55.588-106.248h-38.6z" fill="#2B81BA"/></svg>