<svg width="30" height="30" viewbox="0 0 30 30" fill="none" xmlns="http://www.w3.org/2000/svg">
                <path d="M24.7868 12.2908C25.0015 12.2192 25.2133 12.1395 25.4216 12.0517L27.0251 11.3763L26.0249 12.8C25.4367 13.6372 24.7091 14.3753 23.8723 14.986C23.8748 15.087 23.8761 15.1883 23.8761 15.2898C23.8761 17.3419 23.6036 20.1261 22.5803 22.7716C21.5865 25.3406 19.8743 27.8018 17 29.3072V29.5H28C28.8284 29.5 29.5 28.8284 29.5 28V2C29.5 1.17157 28.8284 0.5 28 0.5H2C1.17157 0.5 0.5 1.17157 0.5 2V28C0.5 28.8284 1.17157 29.5 2 29.5H9.5V29.3926C9.37771 29.3598 9.23096 29.3181 9.06489 29.2667C8.56718 29.1124 7.89039 28.8684 7.17633 28.5091C5.76596 27.7995 4.1163 26.5915 3.52183 24.6461L3.21689 23.6482L4.1857 24.0358C5.9596 24.7453 7.54189 24.644 8.8503 24.0674C7.32131 23.5988 6.10438 22.4471 5.6081 20.9738L5.33761 20.1709L5.87402 20.2683C4.73549 19.3934 4 18.0508 4 16.5327V16.5304C4 16.5133 4 16.4887 4.00082 16.4627L4.02632 15.6626L4.73414 16.0365C4.78362 16.0627 4.83363 16.0878 4.88414 16.1119C4.79423 15.9835 4.7106 15.8507 4.63367 15.7139C4.24188 15.0169 4.03629 14.2369 4.03686 13.4435M24.7868 12.2908L18.8469 10C16.1026 10.0003 13.8339 12.1218 13.8339 14.7918C13.8339 14.938 13.8407 15.0829 13.854 15.2263C10.4966 14.9057 7.54145 13.3092 5.52758 10.96L5.08054 10.4385L4.72165 11.0241C4.27273 11.7567 4.03563 12.5918 4.03686 13.4435M24.7868 12.2908C25.085 11.8925 25.3205 11.4494 25.4814 10.9744L25.9008 9.73578L24.762 10.3786C23.9975 10.8102 23.1664 11.1256 22.2991 11.3134C21.8709 10.9253 21.3744 10.6128 20.8328 10.39C20.2053 10.1319 19.5296 9.99937 18.8474 10L24.7868 12.2908ZM4.03686 13.4435C4.03686 13.4437 4.03686 13.4439 4.03686 13.4441L4.53686 13.4433L4.03686 13.4428C4.03686 13.443 4.03686 13.4432 4.03686 13.4435ZM6.54478 17.0154C6.2737 16.8435 6.02405 16.6448 5.79962 16.4233L5.55302 16.8794C5.87613 16.9594 6.20872 17.0053 6.54478 17.0154Z" fill="#2B2B2B" stroke="white"/>
            </svg>