<svg width="297" height="144" fill="none" xmlns="http://www.w3.org/2000/svg"><path fill-rule="evenodd" clip-rule="evenodd" d="M33.611 137.418l-.01-.004c-10.25-4.423-18.357-11.012-24.255-19.771C3.42 108.841.5 98.303.5 86.128V0h49.715v80.777c0 7.144 1.674 12.13 4.67 15.33 2.97 3.175 7.565 4.933 14.167 4.933 6.602 0 11.196-1.758 14.168-4.933 2.995-3.2 4.67-8.186 4.67-15.33V0h49.714v86.128c0 12.175-2.919 22.713-8.846 31.515-5.902 8.764-14.084 15.353-24.473 19.773C94.067 141.824 82.308 144 69.052 144c-13.26 0-25.086-2.177-35.441-6.582zm69.886-1.84c10.065-4.281 17.932-10.632 23.602-19.052 5.67-8.42 8.505-18.552 8.505-30.398V2H89.889v78.777c0 14.842-6.946 22.263-20.837 22.263-13.892 0-20.838-7.421-20.838-22.263V2H2.5v84.128c0 11.846 2.835 21.978 8.505 30.398 5.67 8.42 13.466 14.771 23.389 19.052C44.458 139.859 56.01 142 69.052 142c13.04 0 24.523-2.141 34.445-6.422zm90.132-65.505L144.938 2h47.628l25.09 36.177L242.958 2h47.628l-48.691 68.073L292.5 139.86h-48.266l-26.578-37.461-26.366 37.461h-48.266l50.605-69.786zm24.033 35.79l-25.334 35.996h-53.225l52.061-71.794L141.048 0h52.565l24.05 34.678L241.916 0h52.56L244.36 70.065l52.061 71.794h-53.22l-25.539-35.996z" fill="#2B81BA"/></svg>