<svg width="375" height="144" fill="none" xmlns="http://www.w3.org/2000/svg"><path fill-rule="evenodd" clip-rule="evenodd" d="M.58 0h41.625l9.512 55.78 7.346-31.618V0h34.846l13.358 56.41L117.639 0h41.599l-27.38 144h-37.35L80.462 86.434 65.284 144h-37.14L.582 0zm79.956 78.304L96.08 142h34.123l26.62-140h-37.518l-11.791 64.13L92.327 2H61.064v22.391l-9.648 41.522L40.517 2H3l26.798 140h33.945l16.793-63.696zM165.607 0h93.506v38.565h-51.095v13.826h44.485v39.435h-44.485v13.609h51.095V144h-93.506V0zm40.411 107.435V89.826h44.485V54.391h-44.485V36.565h51.095V2h-89.506v140h89.506v-34.565h-51.095zM264.879 0h67.745c12.076 0 21.66 3.538 28.444 10.858 6.758 7.293 10.002 17.48 10.002 30.272 0 7.144-1.039 13.422-3.18 18.785l-.004.01-.004.01c-1.727 4.204-4.015 7.762-6.881 10.632 4.213 2.682 7.499 6.004 9.792 9.983 2.879 4.788 4.207 11.358 4.207 19.493 0 13.537-3.552 24.372-10.901 32.236-7.368 7.884-17.596 11.721-30.403 11.721h-68.817V0zM369.07 81.565c-2.191-3.808-5.387-7.004-9.587-9.59a36.68 36.68 0 00-1.847-1.062 25.19 25.19 0 001.591-1.407c2.823-2.717 5.092-6.161 6.805-10.332 2.025-5.072 3.038-11.087 3.038-18.044 0-12.463-3.157-22.101-9.469-28.913C353.288 5.406 344.296 2 332.624 2h-65.745v140h66.817c12.387 0 22.034-3.696 28.942-11.087 6.908-7.391 10.362-17.681 10.362-30.87 0-7.97-1.31-14.13-3.93-18.478zm-40.511-28.96c1.259-1.373 2.065-3.626 2.065-7.127 0-3.477-.839-5.715-2.164-7.09-1.312-1.36-3.429-2.214-6.734-2.214h-16.401v18.609h16.937c3.099 0 5.068-.837 6.297-2.178zm-25.234 4.178v-22.61h18.401c7.265 0 10.898 3.769 10.898 11.305s-3.454 11.305-10.362 11.305h-18.937zm27.87 50.434c1.786-2.029 2.68-5.145 2.68-9.347 0-7.537-3.752-11.305-11.256-11.305h-19.294v23.478h19.652c3.692 0 6.431-.942 8.218-2.826zm-25.87.826h17.652c3.356 0 5.466-.848 6.741-2.175 1.314-1.512 2.157-4.049 2.157-7.998 0-3.463-.861-5.691-2.232-7.068-1.368-1.374-3.582-2.237-7.024-2.237h-17.294v19.478z" fill="#2B81BA"/></svg>