<svg width="72" height="100" fill="none" xmlns="http://www.w3.org/2000/svg"><g clip-path="url(#clip0)"><path d="M36.386 99.747l-28.86-8.012-6.431-72.133h70.668l-6.438 72.122-28.94 8.023z" fill="#264DE4"/><path d="M59.813 87.133L65.314 25.5H36.429v68.115l23.384-6.483z" fill="#2965F1"/><path d="M15.838 52.254l.793 8.846H36.43v-8.846h-20.59zM14.245 34.347l.804 8.847h21.38v-8.847H14.244zM36.428 75.23l-.038.01-9.853-2.66-.63-7.056h-8.88l1.239 13.891 18.122 5.03.04-.01V75.23z" fill="#EBEBEB"/><path d="M22.207 9.462h5.734v3.48h-9.715V.5h9.715v3.48h-6.234v5.482h.5zM35.065 5.176h5.733v7.961h-9.714v-3.091h6.234v-1.78h-6.235V.5h9.715v2.896h-6.233v1.78h.5zM47.923 5.176h5.734v7.961h-9.715v-3.091h6.234v-1.78h-6.234V.5h9.715v2.896h-6.234v1.78h.5z" fill="#000" stroke="#fff"/><path d="M56.962 52.254l1.597-17.907H36.398v8.847h12.466l-.805 9.06H36.398V61.1h10.894l-1.027 11.474-9.867 2.663v9.204l18.136-5.026.133-1.495 2.08-23.29.215-2.377z" fill="#fff"/></g><defs><clipPath id="clip0"><path fill="#fff" transform="translate(.971)" d="M0 0h70.914v100H0z"/></clipPath></defs></svg>