<svg width="71" height="100" fill="none" xmlns="http://www.w3.org/2000/svg"><g clip-path="url(#clip0)"><path d="M70.848 19.602L64.41 91.724l-28.939 8.023-28.86-8.012-6.43-72.133h70.667z" fill="#E44D26"/><path d="M35.514 93.616l23.384-6.483L64.4 25.5H35.514v68.115z" fill="#F16529"/><path d="M22.999 43.194h12.515v-8.847H13.33l.212 2.374 2.175 24.38h19.797v-8.847H23.807L23 43.194zM24.993 65.524h-8.88l1.239 13.891 18.122 5.03.04-.01V75.23l-.038.01-9.853-2.66-.63-7.056z" fill="#EBEBEB"/><path d="M10.751 8.947v4.004H7.255V.5h3.496v4.442h5.113V.5h3.496v12.451h-3.496V8.447H10.75v.5zM25.772 3.96h-3.457V.5h11.413v3.46h-3.96v8.991h-3.495v-8.99h-.5 0-.001zM44.197 4.987L46.932.5h3.908v12.451h-3.477V5.09l-.92 1.422-2.712 4.194-2.714-4.194-.92-1.421V12.951h-3.399V.5h3.908l2.737 4.487.427.7.427-.7zM58.075 9.505h5.823v3.446h-9.82V.5h3.497v9.005h.5z" fill="#000" stroke="#fff"/><path d="M35.484 61.1h10.894L45.35 72.575l-9.867 2.663v9.204l18.137-5.026.133-1.495 2.08-23.29.215-2.376H35.484V61.1zM35.484 43.173v.021h21.37l.176-1.988.404-4.485.211-2.374H35.484v8.826z" fill="#fff"/></g><defs><clipPath id="clip0"><path fill="#fff" transform="translate(.057)" d="M0 0h70.914v100H0z"/></clipPath></defs></svg>