<svg width="101" height="100" fill="none" xmlns="http://www.w3.org/2000/svg"><g clip-path="url(#clip0)"><path d="M1 0h100v100H1V0z" fill="#F5DE19"/><path d="M68.175 78.125a10.235 10.235 0 009.286 5.714c3.893 0 6.382-1.947 6.382-4.643 0-3.214-2.557-4.364-6.843-6.24l-2.35-1.006c-6.786-2.89-11.286-6.508-11.286-14.158 0-7.046 5.357-12.414 13.761-12.414a13.89 13.89 0 0113.364 7.525L83.143 57.6a6.39 6.39 0 00-6.032-4.029 4.089 4.089 0 00-4.497 4.029c0 2.817 1.747 3.96 5.779 5.714l2.35 1.007c7.986 3.425 12.5 6.914 12.5 14.76 0 8.462-6.647 13.097-15.572 13.097a18.053 18.053 0 01-17.125-9.61l7.629-4.443zm-33.196.814c1.475 2.618 2.817 4.832 6.046 4.832 3.086 0 5.036-1.207 5.036-5.903V45.914h9.396v32.079c0 9.728-5.714 14.157-14.032 14.157a14.589 14.589 0 01-14.096-8.572l7.65-4.639z" fill="#000"/></g><defs><clipPath id="clip0"><path fill="#fff" transform="translate(.943)" d="M0 0h100v100H0z"/></clipPath></defs></svg>