<svg width="101" height="100" fill="none" xmlns="http://www.w3.org/2000/svg"><g clip-path="url(#clip0)" fill-rule="evenodd" clip-rule="evenodd"><path d="M50.88 0L4.163 16.216l6.688 61.98L50.881 100V0z" fill="#412846"/><path d="M50.68 0l46.717 16.216-6.688 61.98L50.679 100V0z" fill="#4B314F"/><path d="M74.066 34.219l-.009-.027c2.133 2.375 3.229 5.194 3.287 8.458.058 3.264-1.037 6.707-3.312 10.319 1.7-1.322 3.663-4.175 5.884-8.526.959 8.818-2.605 15.516-10.724 20.103 2.592-.239 6.034-1.946 10.303-5.126-4.556 10.967-12.931 16.754-25.128 17.36-11.786-.004-19.422-7.087-19.416-7.082-4.846-3.772-8.18-8.526-9.991-14.24-2.899-3.165-2.928-3.505-3.227-4.77-.298-1.264.19-1.617 1.038-2.855.566-.825.7-2.012.409-3.54-.722-1-1.137-2.567-1.247-4.7 0-1.032.689-2.12 2.065-3.265s2.22-2.025 2.527-2.631c.233-.33.323-1.763.27-4.298-.014-2.49 1.368-3.844 4.147-4.064 4.169-.329 6.52-3.464 7.829-4.89.873-.95 2.165-1.412 3.795-1.42 2.294-.108 4.382.771 6.18 2.586 4.48-.231 9.068.977 13.717 3.594 6.607 3.924 10.213 8.174 10.817 12.729-.708 5.993-8.76 5.837-24.118-.472-8.037 2.277-11.989 7.21-11.857 14.8-.006 6.965 3.365 12.027 10.09 15.179-3.278-3.218-4.674-5.922-4.204-8.162 6.817 8.073 14.582 11.09 23.282 9.053-3.836.134-6.874-1.1-9.16-3.721 5.88-.143 11.431-2.873 16.658-8.217-3.017 2.401-6.175 3.31-9.518 2.739 9.055-7.119 12.259-15.424 9.612-24.914zm-16.434-1.095a1.329 1.329 0 100-2.658 1.329 1.329 0 000 2.658z" fill="#BA2BD2"/></g><defs><clipPath id="clip0"><path fill="#fff" transform="translate(.78)" d="M0 0h100v100H0z"/></clipPath></defs></svg>