<svg width="164" height="100" fill="none" xmlns="http://www.w3.org/2000/svg"><g clip-path="url(#clip0)"><path d="M81.494 99.711a3.228 3.228 0 01-1.546-.404l-4.895-2.908c-.737-.405-.368-.552-.147-.626.993-.331 1.177-.405 2.208-.994.11-.073.258-.036.368.037l3.755 2.245c.147.074.33.074.44 0l14.687-8.502c.147-.074.221-.221.221-.405V71.186c0-.185-.074-.331-.22-.405l-14.687-8.466c-.147-.074-.331-.074-.441 0L66.55 70.781c-.147.073-.22.257-.22.404v16.969c0 .147.073.33.22.405l4.012 2.319c2.172 1.104 3.534-.184 3.534-1.473V72.658c0-.22.184-.442.441-.442h1.877c.221 0 .442.184.442.442v16.747c0 2.908-1.583 4.601-4.343 4.601-.847 0-1.509 0-3.386-.92l-3.865-2.209a3.106 3.106 0 01-1.546-2.686V71.222c0-1.104.589-2.135 1.546-2.686l14.686-8.503c.92-.515 2.172-.515 3.092 0l14.686 8.502a3.106 3.106 0 011.546 2.687v16.969c0 1.104-.589 2.135-1.546 2.686L83.04 99.38a3.765 3.765 0 01-1.546.331zm4.527-11.668c-6.44 0-7.766-2.944-7.766-5.447 0-.221.184-.442.442-.442h1.914c.22 0 .404.147.404.368.295 1.951 1.141 2.908 5.043 2.908 3.092 0 4.417-.7 4.417-2.356 0-.957-.368-1.656-5.19-2.134-4.012-.406-6.515-1.289-6.515-4.49 0-2.982 2.503-4.75 6.7-4.75 4.71 0 7.03 1.62 7.324 5.154 0 .11-.037.22-.11.331-.074.074-.184.147-.295.147h-1.914a.43.43 0 01-.405-.33c-.441-2.025-1.583-2.688-4.6-2.688-3.387 0-3.792 1.178-3.792 2.061 0 1.068.478 1.399 5.043 1.988 4.527.59 6.662 1.436 6.662 4.6-.037 3.24-2.687 5.08-7.362 5.08z" fill="#539E43"/><path d="M35.426 33.348v0l.037 24.145s0 0 0 0a.417.417 0 01-.202.363l-.021.01-.02.013a.398.398 0 01-.427 0l-.009-.005-.008-.005-9.276-5.3-.003-.002a1.373 1.373 0 01-.702-1.184v-11.3c0-.845-.466-1.634-1.209-2.053l-3.917-2.27c-.365-.252-.8-.336-1.19-.336-.402 0-.827.09-1.214.33l-3.929 2.276a2.372 2.372 0 00-1.209 2.053v11.3c0 .48-.268.94-.702 1.184l-.003.002-9.275 5.3-.022.013-.02.014c-.074.053-.221.073-.366-.017l-.02-.012-.02-.01a.417.417 0 01-.203-.364h0L1.46 33.348s0 0 0 0c0-.48.268-.94.702-1.184h0l.005-.003 15.605-8.98s0 0 0 0c.217-.124.424-.192.598-.192h.115c.245.034.458.093.63.192 0 0 0 0 0 0l15.606 8.98.004.003c.434.244.702.705.702 1.184zM110.275.54a.522.522 0 01.435.015l9.297 5.181h.001c.429.242.702.7.702 1.22v44.869c0 .479-.268.94-.702 1.184h0l-.005.003-15.604 9.016h-.001a1.398 1.398 0 01-1.38 0h-.002l-15.603-9.016h0l-.005-.003a1.373 1.373 0 01-.702-1.184V33.826c0-.479.268-.94.702-1.184h0l.005-.002 15.603-9.017h.002a1.397 1.397 0 011.38 0h.001l3.9 2.244.012.008.014.006c.361.18.747.18 1.109 0l.028-.014.026-.017c.355-.237.554-.611.554-1.005V.92c0-.13.069-.273.233-.38zm-6.109 49.305l.016-.008.016-.009 5.326-3.085c.347-.182.481-.528.481-.844v-6.184c0-.256-.118-.653-.481-.843l-5.326-3.086-.016-.01-.016-.007a1.045 1.045 0 00-.917 0l-.016.008-.015.009-5.326 3.086c-.347.181-.482.527-.482.843V45.9c0 .257.119.653.481.844l5.327 3.085.015.01.016.007a1.048 1.048 0 00.917 0zM162.63 39.132h0l-.007.004-9.275 5.41-.007.005-.006.004a.398.398 0 01-.427 0l-.02-.013-.022-.01a.417.417 0 01-.202-.363v-4.417c0-.53-.295-.973-.713-1.234l-.009-.005-.008-.005-4.887-2.793a1.398 1.398 0 00-1.47 0l-4.877 2.787c-.473.245-.74.756-.74 1.25v5.632c0 .529.295.972.713 1.233l.008.005.008.005 15.68 9.017.012.008.013.006c.107.054.203.2.203.363 0 .164-.096.31-.203.363l-.01.005-.009.005-9.386 5.226-.007.004-.007.004c-.389.233-.895.242-1.337-.006h-.001l-15.493-8.833-.003-.002a1.373 1.373 0 01-.702-1.183V33.605c0-.48.268-.94.702-1.184h0l.005-.003 15.604-9.016h.001a1.397 1.397 0 011.379 0h.002l15.486 8.975.003.002c.404.244.675.708.675 1.19v4.379c0 .498-.248.949-.666 1.184z" fill="#333" stroke="#fff"/><path d="M146.202 38.722a.332.332 0 01.368 0l2.981 1.73a.384.384 0 01.184.331v3.46a.385.385 0 01-.184.331l-2.981 1.73a.337.337 0 01-.368 0l-2.982-1.73a.387.387 0 01-.184-.33v-3.46c0-.148.074-.259.184-.332l2.982-1.73z" fill="#539E43"/><mask id="a" maskUnits="userSpaceOnUse" x="43" y="22" width="36" height="41"><path d="M62.023 23.041a1.897 1.897 0 00-1.877 0L44.65 31.985c-.589.331-.92.957-.92 1.62V51.53c0 .662.368 1.288.92 1.62l15.496 8.944a1.896 1.896 0 001.877 0l15.496-8.945c.59-.33.92-.957.92-1.62V33.606c0-.663-.368-1.288-.92-1.62l-15.496-8.944z" fill="#fff"/></mask><g mask="url(#a)"><path d="M62.023 23.041a1.897 1.897 0 00-1.877 0L44.65 31.985c-.589.331-.92.957-.92 1.62V51.53c0 .662.368 1.288.92 1.62l15.496 8.944a1.896 1.896 0 001.877 0l15.496-8.945c.59-.33.92-.957.92-1.62V33.606c0-.663-.368-1.288-.92-1.62l-15.496-8.944z" fill="url(#paint0_linear)"/><path d="M77.556 31.985l-15.57-8.944a2.556 2.556 0 00-.478-.184L44.061 52.745c.145.176.32.326.516.442l15.57 8.944c.441.258.956.331 1.435.184l16.38-29.961a1.933 1.933 0 00-.406-.369z" fill="url(#paint1_linear)"/><path fill-rule="evenodd" clip-rule="evenodd" d="M77.593 53.15c.442-.257.773-.699.92-1.177L61.434 22.82c-.442-.073-.92-.037-1.325.22L44.65 31.95l16.674 30.402c.242-.04.478-.114.699-.22l15.57-8.981z" fill="url(#paint2_linear)"/><path fill-rule="evenodd" clip-rule="evenodd" d="M77.593 53.15L62.06 62.096c-.22.112-.456.187-.7.22l.295.553 17.226-9.974v-.221l-.442-.737c-.073.515-.404.957-.846 1.215z" fill="url(#paint3_linear)"/><path fill-rule="evenodd" clip-rule="evenodd" d="M77.593 53.15L62.06 62.096c-.22.112-.456.187-.7.22l.295.553 17.226-9.974v-.221l-.442-.737c-.073.515-.404.957-.846 1.215z" fill="url(#paint4_linear)"/></g></g><defs><linearGradient id="paint0_linear" x1="67.398" y1="29.709" x2="50.413" y2="56.397" gradientUnits="userSpaceOnUse"><stop stop-color="#41873F"/><stop offset=".329" stop-color="#418B3D"/><stop offset=".635" stop-color="#419637"/><stop offset=".932" stop-color="#3FA92D"/><stop offset="1" stop-color="#3FAE2A"/></linearGradient><linearGradient id="paint1_linear" x1="58.732" y1="44.667" x2="101.27" y2="21.556" gradientUnits="userSpaceOnUse"><stop offset=".138" stop-color="#41873F"/><stop offset=".403" stop-color="#54A044"/><stop offset=".714" stop-color="#66B848"/><stop offset=".908" stop-color="#6CC04A"/></linearGradient><linearGradient id="paint2_linear" x1="43.164" y1="42.569" x2="79.021" y2="42.569" gradientUnits="userSpaceOnUse"><stop offset=".092" stop-color="#6CC04A"/><stop offset=".286" stop-color="#66B848"/><stop offset=".597" stop-color="#54A044"/><stop offset=".862" stop-color="#41873F"/></linearGradient><linearGradient id="paint3_linear" x1="43.164" y1="57.432" x2="79.021" y2="57.432" gradientUnits="userSpaceOnUse"><stop offset=".092" stop-color="#6CC04A"/><stop offset=".286" stop-color="#66B848"/><stop offset=".597" stop-color="#54A044"/><stop offset=".862" stop-color="#41873F"/></linearGradient><linearGradient id="paint4_linear" x1="84.245" y1="28.862" x2="75.161" y2="76.462" gradientUnits="userSpaceOnUse"><stop stop-color="#41873F"/><stop offset=".329" stop-color="#418B3D"/><stop offset=".635" stop-color="#419637"/><stop offset=".932" stop-color="#3FA92D"/><stop offset="1" stop-color="#3FAE2A"/></linearGradient><clipPath id="clip0"><path fill="#fff" transform="translate(.885)" d="M0 0h163.057v100H0z"/></clipPath></defs></svg>