<svg width="84" height="100" fill="none" xmlns="http://www.w3.org/2000/svg"><path d="M71.24 20.583c-7.388-10.642-22.097-13.76-32.67-7.05l-18.64 11.93c-5.084 3.186-8.608 8.405-9.625 14.302-.881 4.948-.136 10.032 2.237 14.437a20.463 20.463 0 00-3.186 7.999 22.806 22.806 0 003.864 17.216c7.455 10.642 22.096 13.76 32.67 7.05l18.64-11.862c5.083-3.186 8.608-8.405 9.625-14.302.88-4.948.135-10.032-2.237-14.438a20.462 20.462 0 003.185-7.998 22.333 22.333 0 00-3.863-17.284z" fill="#FF3E00"/><path d="M36.74 80.434a14.774 14.774 0 01-15.861-5.897c-2.17-2.983-2.983-6.71-2.373-10.37.136-.61.271-1.153.407-1.763l.339-1.085.949.678a24.726 24.726 0 007.32 3.66l.678.204-.068.677a4.536 4.536 0 00.746 2.78c1.084 1.558 2.982 2.304 4.812 1.83.407-.136.814-.272 1.153-.475l18.572-11.861c.948-.61 1.559-1.492 1.762-2.576a4.207 4.207 0 00-.678-3.118c-1.084-1.56-2.982-2.237-4.812-1.762-.407.135-.814.27-1.153.474l-7.117 4.541a12.61 12.61 0 01-3.795 1.627 14.774 14.774 0 01-15.861-5.897c-2.101-2.982-2.983-6.71-2.305-10.37.61-3.525 2.78-6.71 5.83-8.608l18.64-11.862c1.152-.746 2.44-1.288 3.795-1.695a14.774 14.774 0 0115.86 5.897c2.17 2.983 2.983 6.71 2.373 10.37-.136.61-.271 1.153-.474 1.763l-.34 1.085-.948-.678a24.726 24.726 0 00-7.32-3.66l-.678-.204.067-.678a4.536 4.536 0 00-.745-2.779c-1.085-1.559-2.983-2.236-4.813-1.762-.406.136-.813.271-1.152.474L30.978 41.257c-.949.61-1.559 1.491-1.762 2.576a4.206 4.206 0 00.678 3.118c1.084 1.559 2.982 2.237 4.812 1.762.407-.135.813-.271 1.152-.474l7.117-4.542c1.153-.745 2.44-1.288 3.796-1.694a14.774 14.774 0 0115.86 5.897c2.17 2.982 2.983 6.71 2.373 10.37-.61 3.525-2.779 6.71-5.829 8.608L40.535 78.74c-1.152.746-2.44 1.288-3.795 1.695z" fill="#fff"/></svg>