<svg width="101" height="100" fill="none" xmlns="http://www.w3.org/2000/svg"><g clip-path="url(#clip0)"><path d="M.943 50v50h100V0h-100v50z" fill="#007ACC"/><path d="M23.056 50.332l-.031 4.095H36.04v36.984h9.207V54.427h13.016v-4.016c0-2.222-.048-4.08-.11-4.127-.049-.063-7.97-.095-17.572-.08l-17.477.048-.047 4.08zM81.633 46.136c2.54.635 4.476 1.762 6.254 3.603.92.985 2.285 2.778 2.397 3.207.031.127-4.318 3.047-6.953 4.682-.095.064-.476-.349-.905-.984-1.285-1.873-2.634-2.683-4.698-2.825-3.031-.207-4.984 1.38-4.968 4.031 0 .778.11 1.238.428 1.873.667 1.381 1.905 2.207 5.794 3.89 7.159 3.079 10.222 5.11 12.127 8 2.127 3.222 2.603 8.364 1.159 12.19-1.587 4.158-5.524 6.984-11.064 7.92-1.714.302-5.777.254-7.619-.079-4.015-.714-7.825-2.698-10.174-5.301-.921-1.016-2.715-3.667-2.603-3.858.047-.063.46-.317.92-.587.444-.254 2.127-1.222 3.714-2.143l2.873-1.667.604.89c.841 1.285 2.682 3.047 3.793 3.634 3.19 1.683 7.572 1.445 9.73-.492.921-.841 1.302-1.714 1.302-3 0-1.159-.143-1.666-.746-2.54-.778-1.11-2.365-2.047-6.873-4-5.159-2.222-7.381-3.603-9.413-5.793-1.174-1.27-2.286-3.302-2.746-5-.38-1.413-.476-4.953-.174-6.381 1.063-4.984 4.825-8.46 10.254-9.492 1.761-.333 5.856-.206 7.587.222z" fill="#fff"/></g><defs><clipPath id="clip0"><path fill="#fff" transform="translate(.943)" d="M0 0h100v100H0z"/></clipPath></defs></svg>